<mxfile host="app.diagrams.net" agent="Mozilla/5.0 (Windows NT 10.0; Win64; x64) AppleWebKit/537.36 (KHTML, like Gecko) Chrome/137.0.0.0 Safari/537.36" version="27.1.6">
  <diagram name="Strona-1" id="3JbGo9GAIkY4VrxbtScP">
    <mxGraphModel dx="1426" dy="829" grid="1" gridSize="10" guides="1" tooltips="1" connect="1" arrows="1" fold="1" page="1" pageScale="1" pageWidth="827" pageHeight="1169" math="0" shadow="0">
      <root>
        <mxCell id="0" />
        <mxCell id="1" parent="0" />
        <mxCell id="HKwFbB_bQjfoJEp04Cz5-1" value="GameManager" style="swimlane;fontStyle=1;align=center;verticalAlign=top;childLayout=stackLayout;horizontal=1;startSize=26;horizontalStack=0;resizeParent=1;resizeParentMax=0;resizeLast=0;collapsible=1;marginBottom=0;whiteSpace=wrap;html=1;" parent="1" vertex="1">
          <mxGeometry x="910" y="196" width="180" height="512" as="geometry" />
        </mxCell>
        <mxCell id="HKwFbB_bQjfoJEp04Cz5-2" value="- player: Player" style="text;strokeColor=none;fillColor=none;align=left;verticalAlign=top;spacingLeft=4;spacingRight=4;overflow=hidden;rotatable=0;points=[[0,0.5],[1,0.5]];portConstraint=eastwest;whiteSpace=wrap;html=1;" parent="HKwFbB_bQjfoJEp04Cz5-1" vertex="1">
          <mxGeometry y="26" width="180" height="24" as="geometry" />
        </mxCell>
        <mxCell id="HKwFbB_bQjfoJEp04Cz5-3" value="- evaluator: HandEvaluator" style="text;strokeColor=none;fillColor=none;align=left;verticalAlign=top;spacingLeft=4;spacingRight=4;overflow=hidden;rotatable=0;points=[[0,0.5],[1,0.5]];portConstraint=eastwest;whiteSpace=wrap;html=1;" parent="HKwFbB_bQjfoJEp04Cz5-1" vertex="1">
          <mxGeometry y="50" width="180" height="24" as="geometry" />
        </mxCell>
        <mxCell id="HKwFbB_bQjfoJEp04Cz5-4" value="- shop: Shop" style="text;strokeColor=none;fillColor=none;align=left;verticalAlign=top;spacingLeft=4;spacingRight=4;overflow=hidden;rotatable=0;points=[[0,0.5],[1,0.5]];portConstraint=eastwest;whiteSpace=wrap;html=1;" parent="HKwFbB_bQjfoJEp04Cz5-1" vertex="1">
          <mxGeometry y="74" width="180" height="24" as="geometry" />
        </mxCell>
        <mxCell id="HKwFbB_bQjfoJEp04Cz5-5" value="- levelmg: LevelManager&lt;div&gt;&lt;br&gt;&lt;/div&gt;" style="text;strokeColor=none;fillColor=none;align=left;verticalAlign=top;spacingLeft=4;spacingRight=4;overflow=hidden;rotatable=0;points=[[0,0.5],[1,0.5]];portConstraint=eastwest;whiteSpace=wrap;html=1;" parent="HKwFbB_bQjfoJEp04Cz5-1" vertex="1">
          <mxGeometry y="98" width="180" height="24" as="geometry" />
        </mxCell>
        <mxCell id="HKwFbB_bQjfoJEp04Cz5-6" value="- ui: GameUI" style="text;strokeColor=none;fillColor=none;align=left;verticalAlign=top;spacingLeft=4;spacingRight=4;overflow=hidden;rotatable=0;points=[[0,0.5],[1,0.5]];portConstraint=eastwest;whiteSpace=wrap;html=1;" parent="HKwFbB_bQjfoJEp04Cz5-1" vertex="1">
          <mxGeometry y="122" width="180" height="24" as="geometry" />
        </mxCell>
        <mxCell id="HKwFbB_bQjfoJEp04Cz5-7" value="-&amp;nbsp; currentOpponent: Opponent" style="text;strokeColor=none;fillColor=none;align=left;verticalAlign=top;spacingLeft=4;spacingRight=4;overflow=hidden;rotatable=0;points=[[0,0.5],[1,0.5]];portConstraint=eastwest;whiteSpace=wrap;html=1;" parent="HKwFbB_bQjfoJEp04Cz5-1" vertex="1">
          <mxGeometry y="146" width="180" height="24" as="geometry" />
        </mxCell>
        <mxCell id="HKwFbB_bQjfoJEp04Cz5-8" value="- sumOfScore: int" style="text;strokeColor=none;fillColor=none;align=left;verticalAlign=top;spacingLeft=4;spacingRight=4;overflow=hidden;rotatable=0;points=[[0,0.5],[1,0.5]];portConstraint=eastwest;whiteSpace=wrap;html=1;" parent="HKwFbB_bQjfoJEp04Cz5-1" vertex="1">
          <mxGeometry y="170" width="180" height="24" as="geometry" />
        </mxCell>
        <mxCell id="HKwFbB_bQjfoJEp04Cz5-9" value="- scoreToBeat: int" style="text;strokeColor=none;fillColor=none;align=left;verticalAlign=top;spacingLeft=4;spacingRight=4;overflow=hidden;rotatable=0;points=[[0,0.5],[1,0.5]];portConstraint=eastwest;whiteSpace=wrap;html=1;" parent="HKwFbB_bQjfoJEp04Cz5-1" vertex="1">
          <mxGeometry y="194" width="180" height="24" as="geometry" />
        </mxCell>
        <mxCell id="HKwFbB_bQjfoJEp04Cz5-10" value="" style="line;strokeWidth=1;fillColor=none;align=left;verticalAlign=middle;spacingTop=-1;spacingLeft=3;spacingRight=3;rotatable=0;labelPosition=right;points=[];portConstraint=eastwest;strokeColor=inherit;" parent="HKwFbB_bQjfoJEp04Cz5-1" vertex="1">
          <mxGeometry y="218" width="180" height="8" as="geometry" />
        </mxCell>
        <mxCell id="HKwFbB_bQjfoJEp04Cz5-11" value="+ StartGame():void" style="text;strokeColor=none;fillColor=none;align=left;verticalAlign=top;spacingLeft=4;spacingRight=4;overflow=hidden;rotatable=0;points=[[0,0.5],[1,0.5]];portConstraint=eastwest;whiteSpace=wrap;html=1;" parent="HKwFbB_bQjfoJEp04Cz5-1" vertex="1">
          <mxGeometry y="226" width="180" height="26" as="geometry" />
        </mxCell>
        <mxCell id="HKwFbB_bQjfoJEp04Cz5-12" value="+ NextTurn(): void" style="text;strokeColor=none;fillColor=none;align=left;verticalAlign=top;spacingLeft=4;spacingRight=4;overflow=hidden;rotatable=0;points=[[0,0.5],[1,0.5]];portConstraint=eastwest;whiteSpace=wrap;html=1;" parent="HKwFbB_bQjfoJEp04Cz5-1" vertex="1">
          <mxGeometry y="252" width="180" height="26" as="geometry" />
        </mxCell>
        <mxCell id="HKwFbB_bQjfoJEp04Cz5-13" value="+ HandleThrow(): void" style="text;strokeColor=none;fillColor=none;align=left;verticalAlign=top;spacingLeft=4;spacingRight=4;overflow=hidden;rotatable=0;points=[[0,0.5],[1,0.5]];portConstraint=eastwest;whiteSpace=wrap;html=1;" parent="HKwFbB_bQjfoJEp04Cz5-1" vertex="1">
          <mxGeometry y="278" width="180" height="26" as="geometry" />
        </mxCell>
        <mxCell id="HKwFbB_bQjfoJEp04Cz5-14" value="+ HandleReroll(): void" style="text;strokeColor=none;fillColor=none;align=left;verticalAlign=top;spacingLeft=4;spacingRight=4;overflow=hidden;rotatable=0;points=[[0,0.5],[1,0.5]];portConstraint=eastwest;whiteSpace=wrap;html=1;" parent="HKwFbB_bQjfoJEp04Cz5-1" vertex="1">
          <mxGeometry y="304" width="180" height="26" as="geometry" />
        </mxCell>
        <mxCell id="HKwFbB_bQjfoJEp04Cz5-15" value="+ ApplyOpponentEffect(): void" style="text;strokeColor=none;fillColor=none;align=left;verticalAlign=top;spacingLeft=4;spacingRight=4;overflow=hidden;rotatable=0;points=[[0,0.5],[1,0.5]];portConstraint=eastwest;whiteSpace=wrap;html=1;" parent="HKwFbB_bQjfoJEp04Cz5-1" vertex="1">
          <mxGeometry y="330" width="180" height="26" as="geometry" />
        </mxCell>
        <mxCell id="HKwFbB_bQjfoJEp04Cz5-16" value="+ CheckVictory(): bool" style="text;strokeColor=none;fillColor=none;align=left;verticalAlign=top;spacingLeft=4;spacingRight=4;overflow=hidden;rotatable=0;points=[[0,0.5],[1,0.5]];portConstraint=eastwest;whiteSpace=wrap;html=1;" parent="HKwFbB_bQjfoJEp04Cz5-1" vertex="1">
          <mxGeometry y="356" width="180" height="26" as="geometry" />
        </mxCell>
        <mxCell id="HKwFbB_bQjfoJEp04Cz5-17" value="+ OpenShop(): void" style="text;strokeColor=none;fillColor=none;align=left;verticalAlign=top;spacingLeft=4;spacingRight=4;overflow=hidden;rotatable=0;points=[[0,0.5],[1,0.5]];portConstraint=eastwest;whiteSpace=wrap;html=1;" parent="HKwFbB_bQjfoJEp04Cz5-1" vertex="1">
          <mxGeometry y="382" width="180" height="26" as="geometry" />
        </mxCell>
        <mxCell id="HKwFbB_bQjfoJEp04Cz5-18" value="+ EndGame(): void" style="text;strokeColor=none;fillColor=none;align=left;verticalAlign=top;spacingLeft=4;spacingRight=4;overflow=hidden;rotatable=0;points=[[0,0.5],[1,0.5]];portConstraint=eastwest;whiteSpace=wrap;html=1;" parent="HKwFbB_bQjfoJEp04Cz5-1" vertex="1">
          <mxGeometry y="408" width="180" height="26" as="geometry" />
        </mxCell>
        <mxCell id="HKwFbB_bQjfoJEp04Cz5-19" value="+ CloseShop(): void" style="text;strokeColor=none;fillColor=none;align=left;verticalAlign=top;spacingLeft=4;spacingRight=4;overflow=hidden;rotatable=0;points=[[0,0.5],[1,0.5]];portConstraint=eastwest;whiteSpace=wrap;html=1;" parent="HKwFbB_bQjfoJEp04Cz5-1" vertex="1">
          <mxGeometry y="434" width="180" height="26" as="geometry" />
        </mxCell>
        <mxCell id="HKwFbB_bQjfoJEp04Cz5-20" value="+ AddToCurrentScore(): void" style="text;strokeColor=none;fillColor=none;align=left;verticalAlign=top;spacingLeft=4;spacingRight=4;overflow=hidden;rotatable=0;points=[[0,0.5],[1,0.5]];portConstraint=eastwest;whiteSpace=wrap;html=1;" parent="HKwFbB_bQjfoJEp04Cz5-1" vertex="1">
          <mxGeometry y="460" width="180" height="26" as="geometry" />
        </mxCell>
        <mxCell id="HKwFbB_bQjfoJEp04Cz5-21" value="+ ChangeKeepFlags(): void" style="text;strokeColor=none;fillColor=none;align=left;verticalAlign=top;spacingLeft=4;spacingRight=4;overflow=hidden;rotatable=0;points=[[0,0.5],[1,0.5]];portConstraint=eastwest;whiteSpace=wrap;html=1;" parent="HKwFbB_bQjfoJEp04Cz5-1" vertex="1">
          <mxGeometry y="486" width="180" height="26" as="geometry" />
        </mxCell>
        <mxCell id="HKwFbB_bQjfoJEp04Cz5-22" value="Player" style="swimlane;fontStyle=1;align=center;verticalAlign=top;childLayout=stackLayout;horizontal=1;startSize=26;horizontalStack=0;resizeParent=1;resizeParentMax=0;resizeLast=0;collapsible=1;marginBottom=0;whiteSpace=wrap;html=1;" parent="1" vertex="1">
          <mxGeometry x="1250" y="240" width="250" height="424" as="geometry">
            <mxRectangle x="830" y="243" width="70" height="30" as="alternateBounds" />
          </mxGeometry>
        </mxCell>
        <mxCell id="HKwFbB_bQjfoJEp04Cz5-23" value="+ Coins: int" style="text;strokeColor=none;fillColor=none;align=left;verticalAlign=top;spacingLeft=4;spacingRight=4;overflow=hidden;rotatable=0;points=[[0,0.5],[1,0.5]];portConstraint=eastwest;whiteSpace=wrap;html=1;" parent="HKwFbB_bQjfoJEp04Cz5-22" vertex="1">
          <mxGeometry y="26" width="250" height="26" as="geometry" />
        </mxCell>
        <mxCell id="HKwFbB_bQjfoJEp04Cz5-24" value="+ boosterInv: BoosterInventory" style="text;strokeColor=none;fillColor=none;align=left;verticalAlign=top;spacingLeft=4;spacingRight=4;overflow=hidden;rotatable=0;points=[[0,0.5],[1,0.5]];portConstraint=eastwest;whiteSpace=wrap;html=1;" parent="HKwFbB_bQjfoJEp04Cz5-22" vertex="1">
          <mxGeometry y="52" width="250" height="26" as="geometry" />
        </mxCell>
        <mxCell id="HKwFbB_bQjfoJEp04Cz5-25" value="+ DiceSet: DiceSet" style="text;strokeColor=none;fillColor=none;align=left;verticalAlign=top;spacingLeft=4;spacingRight=4;overflow=hidden;rotatable=0;points=[[0,0.5],[1,0.5]];portConstraint=eastwest;whiteSpace=wrap;html=1;" parent="HKwFbB_bQjfoJEp04Cz5-22" vertex="1">
          <mxGeometry y="78" width="250" height="26" as="geometry" />
        </mxCell>
        <mxCell id="HKwFbB_bQjfoJEp04Cz5-26" value="+ ThrowManager: ThrowManager" style="text;strokeColor=none;fillColor=none;align=left;verticalAlign=top;spacingLeft=4;spacingRight=4;overflow=hidden;rotatable=0;points=[[0,0.5],[1,0.5]];portConstraint=eastwest;whiteSpace=wrap;html=1;" parent="HKwFbB_bQjfoJEp04Cz5-22" vertex="1">
          <mxGeometry y="104" width="250" height="26" as="geometry" />
        </mxCell>
        <mxCell id="HKwFbB_bQjfoJEp04Cz5-27" value="- throwSize: int" style="text;strokeColor=none;fillColor=none;align=left;verticalAlign=top;spacingLeft=4;spacingRight=4;overflow=hidden;rotatable=0;points=[[0,0.5],[1,0.5]];portConstraint=eastwest;whiteSpace=wrap;html=1;" parent="HKwFbB_bQjfoJEp04Cz5-22" vertex="1">
          <mxGeometry y="130" width="250" height="26" as="geometry" />
        </mxCell>
        <mxCell id="HKwFbB_bQjfoJEp04Cz5-28" value="- rerollSize: int" style="text;strokeColor=none;fillColor=none;align=left;verticalAlign=top;spacingLeft=4;spacingRight=4;overflow=hidden;rotatable=0;points=[[0,0.5],[1,0.5]];portConstraint=eastwest;whiteSpace=wrap;html=1;" parent="HKwFbB_bQjfoJEp04Cz5-22" vertex="1">
          <mxGeometry y="156" width="250" height="26" as="geometry" />
        </mxCell>
        <mxCell id="HKwFbB_bQjfoJEp04Cz5-29" value="+ CurrentScore: int" style="text;strokeColor=none;fillColor=none;align=left;verticalAlign=top;spacingLeft=4;spacingRight=4;overflow=hidden;rotatable=0;points=[[0,0.5],[1,0.5]];portConstraint=eastwest;whiteSpace=wrap;html=1;" parent="HKwFbB_bQjfoJEp04Cz5-22" vertex="1">
          <mxGeometry y="182" width="250" height="26" as="geometry" />
        </mxCell>
        <mxCell id="HKwFbB_bQjfoJEp04Cz5-30" value="+ CurrentScore: int" style="text;strokeColor=none;fillColor=none;align=left;verticalAlign=top;spacingLeft=4;spacingRight=4;overflow=hidden;rotatable=0;points=[[0,0.5],[1,0.5]];portConstraint=eastwest;whiteSpace=wrap;html=1;" parent="HKwFbB_bQjfoJEp04Cz5-22" vertex="1">
          <mxGeometry y="208" width="250" height="26" as="geometry" />
        </mxCell>
        <mxCell id="HKwFbB_bQjfoJEp04Cz5-31" value="" style="line;strokeWidth=1;fillColor=none;align=left;verticalAlign=middle;spacingTop=-1;spacingLeft=3;spacingRight=3;rotatable=0;labelPosition=right;points=[];portConstraint=eastwest;strokeColor=inherit;" parent="HKwFbB_bQjfoJEp04Cz5-22" vertex="1">
          <mxGeometry y="234" width="250" height="8" as="geometry" />
        </mxCell>
        <mxCell id="HKwFbB_bQjfoJEp04Cz5-32" value="+ AddBooster(): bool" style="text;strokeColor=none;fillColor=none;align=left;verticalAlign=top;spacingLeft=4;spacingRight=4;overflow=hidden;rotatable=0;points=[[0,0.5],[1,0.5]];portConstraint=eastwest;whiteSpace=wrap;html=1;" parent="HKwFbB_bQjfoJEp04Cz5-22" vertex="1">
          <mxGeometry y="242" width="250" height="26" as="geometry" />
        </mxCell>
        <mxCell id="HKwFbB_bQjfoJEp04Cz5-33" value="+ ChangeCoins(int): void" style="text;strokeColor=none;fillColor=none;align=left;verticalAlign=top;spacingLeft=4;spacingRight=4;overflow=hidden;rotatable=0;points=[[0,0.5],[1,0.5]];portConstraint=eastwest;whiteSpace=wrap;html=1;" parent="HKwFbB_bQjfoJEp04Cz5-22" vertex="1">
          <mxGeometry y="268" width="250" height="26" as="geometry" />
        </mxCell>
        <mxCell id="HKwFbB_bQjfoJEp04Cz5-34" value="+ RecalculateBoost(): void" style="text;strokeColor=none;fillColor=none;align=left;verticalAlign=top;spacingLeft=4;spacingRight=4;overflow=hidden;rotatable=0;points=[[0,0.5],[1,0.5]];portConstraint=eastwest;whiteSpace=wrap;html=1;" parent="HKwFbB_bQjfoJEp04Cz5-22" vertex="1">
          <mxGeometry y="294" width="250" height="26" as="geometry" />
        </mxCell>
        <mxCell id="HKwFbB_bQjfoJEp04Cz5-35" value="+ SetRolls(int): void" style="text;strokeColor=none;fillColor=none;align=left;verticalAlign=top;spacingLeft=4;spacingRight=4;overflow=hidden;rotatable=0;points=[[0,0.5],[1,0.5]];portConstraint=eastwest;whiteSpace=wrap;html=1;" parent="HKwFbB_bQjfoJEp04Cz5-22" vertex="1">
          <mxGeometry y="320" width="250" height="26" as="geometry" />
        </mxCell>
        <mxCell id="HKwFbB_bQjfoJEp04Cz5-36" value="+SetThrows(int): void" style="text;strokeColor=none;fillColor=none;align=left;verticalAlign=top;spacingLeft=4;spacingRight=4;overflow=hidden;rotatable=0;points=[[0,0.5],[1,0.5]];portConstraint=eastwest;whiteSpace=wrap;html=1;" parent="HKwFbB_bQjfoJEp04Cz5-22" vertex="1">
          <mxGeometry y="346" width="250" height="26" as="geometry" />
        </mxCell>
        <mxCell id="HKwFbB_bQjfoJEp04Cz5-37" value="+ HalfBooster(): void" style="text;strokeColor=none;fillColor=none;align=left;verticalAlign=top;spacingLeft=4;spacingRight=4;overflow=hidden;rotatable=0;points=[[0,0.5],[1,0.5]];portConstraint=eastwest;whiteSpace=wrap;html=1;" parent="HKwFbB_bQjfoJEp04Cz5-22" vertex="1">
          <mxGeometry y="372" width="250" height="26" as="geometry" />
        </mxCell>
        <mxCell id="HKwFbB_bQjfoJEp04Cz5-38" value="+ NewRound(): void" style="text;strokeColor=none;fillColor=none;align=left;verticalAlign=top;spacingLeft=4;spacingRight=4;overflow=hidden;rotatable=0;points=[[0,0.5],[1,0.5]];portConstraint=eastwest;whiteSpace=wrap;html=1;" parent="HKwFbB_bQjfoJEp04Cz5-22" vertex="1">
          <mxGeometry y="398" width="250" height="26" as="geometry" />
        </mxCell>
        <mxCell id="HKwFbB_bQjfoJEp04Cz5-39" value="" style="endArrow=diamondThin;endFill=1;endSize=24;html=1;rounded=0;exitX=0;exitY=0.018;exitDx=0;exitDy=0;entryX=0.997;entryY=0.092;entryDx=0;entryDy=0;entryPerimeter=0;exitPerimeter=0;" parent="1" source="HKwFbB_bQjfoJEp04Cz5-22" target="HKwFbB_bQjfoJEp04Cz5-3" edge="1">
          <mxGeometry width="160" relative="1" as="geometry">
            <mxPoint x="1190" y="447" as="sourcePoint" />
            <mxPoint x="1040" y="347" as="targetPoint" />
          </mxGeometry>
        </mxCell>
        <mxCell id="HKwFbB_bQjfoJEp04Cz5-40" value="BoosterInventory" style="swimlane;fontStyle=1;align=center;verticalAlign=top;childLayout=stackLayout;horizontal=1;startSize=26;horizontalStack=0;resizeParent=1;resizeParentMax=0;resizeLast=0;collapsible=1;marginBottom=0;whiteSpace=wrap;html=1;" parent="1" vertex="1">
          <mxGeometry x="1680" y="480" width="180" height="138" as="geometry" />
        </mxCell>
        <mxCell id="HKwFbB_bQjfoJEp04Cz5-41" value="+boosters: List&amp;lt;Booster&amp;gt;" style="text;strokeColor=none;fillColor=none;align=left;verticalAlign=top;spacingLeft=4;spacingRight=4;overflow=hidden;rotatable=0;points=[[0,0.5],[1,0.5]];portConstraint=eastwest;whiteSpace=wrap;html=1;" parent="HKwFbB_bQjfoJEp04Cz5-40" vertex="1">
          <mxGeometry y="26" width="180" height="26" as="geometry" />
        </mxCell>
        <mxCell id="-SWtafrbvMWJWGkDT9lV-1" value="+ BoostersIds: List&amp;lt;int&amp;gt;" style="text;strokeColor=none;fillColor=none;align=left;verticalAlign=top;spacingLeft=4;spacingRight=4;overflow=hidden;rotatable=0;points=[[0,0.5],[1,0.5]];portConstraint=eastwest;whiteSpace=wrap;html=1;" vertex="1" parent="HKwFbB_bQjfoJEp04Cz5-40">
          <mxGeometry y="52" width="180" height="26" as="geometry" />
        </mxCell>
        <mxCell id="HKwFbB_bQjfoJEp04Cz5-42" value="" style="line;strokeWidth=1;fillColor=none;align=left;verticalAlign=middle;spacingTop=-1;spacingLeft=3;spacingRight=3;rotatable=0;labelPosition=right;points=[];portConstraint=eastwest;strokeColor=inherit;" parent="HKwFbB_bQjfoJEp04Cz5-40" vertex="1">
          <mxGeometry y="78" width="180" height="8" as="geometry" />
        </mxCell>
        <mxCell id="HKwFbB_bQjfoJEp04Cz5-43" value="+ AddBooster(Booster): void" style="text;strokeColor=none;fillColor=none;align=left;verticalAlign=top;spacingLeft=4;spacingRight=4;overflow=hidden;rotatable=0;points=[[0,0.5],[1,0.5]];portConstraint=eastwest;whiteSpace=wrap;html=1;" parent="HKwFbB_bQjfoJEp04Cz5-40" vertex="1">
          <mxGeometry y="86" width="180" height="26" as="geometry" />
        </mxCell>
        <mxCell id="HKwFbB_bQjfoJEp04Cz5-44" value="+ Clear(): void" style="text;strokeColor=none;fillColor=none;align=left;verticalAlign=top;spacingLeft=4;spacingRight=4;overflow=hidden;rotatable=0;points=[[0,0.5],[1,0.5]];portConstraint=eastwest;whiteSpace=wrap;html=1;" parent="HKwFbB_bQjfoJEp04Cz5-40" vertex="1">
          <mxGeometry y="112" width="180" height="26" as="geometry" />
        </mxCell>
        <mxCell id="HKwFbB_bQjfoJEp04Cz5-45" value="" style="endArrow=diamondThin;endFill=0;endSize=24;html=1;rounded=0;exitX=0.5;exitY=0;exitDx=0;exitDy=0;entryX=0.33;entryY=1.192;entryDx=0;entryDy=0;entryPerimeter=0;" parent="1" source="HKwFbB_bQjfoJEp04Cz5-46" target="HKwFbB_bQjfoJEp04Cz5-44" edge="1">
          <mxGeometry width="160" relative="1" as="geometry">
            <mxPoint x="1585" y="517" as="sourcePoint" />
            <mxPoint x="1740" y="620" as="targetPoint" />
          </mxGeometry>
        </mxCell>
        <mxCell id="HKwFbB_bQjfoJEp04Cz5-46" value="&lt;i&gt;Booster&lt;/i&gt;" style="swimlane;fontStyle=1;align=center;verticalAlign=top;childLayout=stackLayout;horizontal=1;startSize=26;horizontalStack=0;resizeParent=1;resizeParentMax=0;resizeLast=0;collapsible=1;marginBottom=0;whiteSpace=wrap;html=1;" parent="1" vertex="1">
          <mxGeometry x="1660" y="710" width="160" height="112" as="geometry" />
        </mxCell>
        <mxCell id="HKwFbB_bQjfoJEp04Cz5-47" value="+ int: Id" style="text;strokeColor=none;fillColor=none;align=left;verticalAlign=top;spacingLeft=4;spacingRight=4;overflow=hidden;rotatable=0;points=[[0,0.5],[1,0.5]];portConstraint=eastwest;whiteSpace=wrap;html=1;" parent="HKwFbB_bQjfoJEp04Cz5-46" vertex="1">
          <mxGeometry y="26" width="160" height="26" as="geometry" />
        </mxCell>
        <mxCell id="HKwFbB_bQjfoJEp04Cz5-48" value="# bonus: int&amp;nbsp;" style="text;strokeColor=none;fillColor=none;align=left;verticalAlign=top;spacingLeft=4;spacingRight=4;overflow=hidden;rotatable=0;points=[[0,0.5],[1,0.5]];portConstraint=eastwest;whiteSpace=wrap;html=1;" parent="HKwFbB_bQjfoJEp04Cz5-46" vertex="1">
          <mxGeometry y="52" width="160" height="26" as="geometry" />
        </mxCell>
        <mxCell id="HKwFbB_bQjfoJEp04Cz5-49" value="" style="line;strokeWidth=1;fillColor=none;align=left;verticalAlign=middle;spacingTop=-1;spacingLeft=3;spacingRight=3;rotatable=0;labelPosition=right;points=[];portConstraint=eastwest;strokeColor=inherit;" parent="HKwFbB_bQjfoJEp04Cz5-46" vertex="1">
          <mxGeometry y="78" width="160" height="8" as="geometry" />
        </mxCell>
        <mxCell id="HKwFbB_bQjfoJEp04Cz5-50" value="+ Apply(int): int" style="text;strokeColor=none;fillColor=none;align=left;verticalAlign=top;spacingLeft=4;spacingRight=4;overflow=hidden;rotatable=0;points=[[0,0.5],[1,0.5]];portConstraint=eastwest;whiteSpace=wrap;html=1;" parent="HKwFbB_bQjfoJEp04Cz5-46" vertex="1">
          <mxGeometry y="86" width="160" height="26" as="geometry" />
        </mxCell>
        <mxCell id="HKwFbB_bQjfoJEp04Cz5-51" value="FlatBooster" style="swimlane;fontStyle=1;align=center;verticalAlign=top;childLayout=stackLayout;horizontal=1;startSize=26;horizontalStack=0;resizeParent=1;resizeParentMax=0;resizeLast=0;collapsible=1;marginBottom=0;whiteSpace=wrap;html=1;" parent="1" vertex="1">
          <mxGeometry x="1570" y="900" width="160" height="34" as="geometry" />
        </mxCell>
        <mxCell id="HKwFbB_bQjfoJEp04Cz5-52" value="" style="line;strokeWidth=1;fillColor=none;align=left;verticalAlign=middle;spacingTop=-1;spacingLeft=3;spacingRight=3;rotatable=0;labelPosition=right;points=[];portConstraint=eastwest;strokeColor=inherit;" parent="HKwFbB_bQjfoJEp04Cz5-51" vertex="1">
          <mxGeometry y="26" width="160" height="8" as="geometry" />
        </mxCell>
        <mxCell id="HKwFbB_bQjfoJEp04Cz5-53" value="MultiplyBooster" style="swimlane;fontStyle=1;align=center;verticalAlign=top;childLayout=stackLayout;horizontal=1;startSize=26;horizontalStack=0;resizeParent=1;resizeParentMax=0;resizeLast=0;collapsible=1;marginBottom=0;whiteSpace=wrap;html=1;" parent="1" vertex="1">
          <mxGeometry x="1760" y="900" width="160" height="34" as="geometry" />
        </mxCell>
        <mxCell id="HKwFbB_bQjfoJEp04Cz5-54" value="" style="line;strokeWidth=1;fillColor=none;align=left;verticalAlign=middle;spacingTop=-1;spacingLeft=3;spacingRight=3;rotatable=0;labelPosition=right;points=[];portConstraint=eastwest;strokeColor=inherit;" parent="HKwFbB_bQjfoJEp04Cz5-53" vertex="1">
          <mxGeometry y="26" width="160" height="8" as="geometry" />
        </mxCell>
        <mxCell id="HKwFbB_bQjfoJEp04Cz5-55" value="Extends" style="endArrow=block;endSize=16;endFill=0;html=1;rounded=0;entryX=0.554;entryY=1.1;entryDx=0;entryDy=0;entryPerimeter=0;exitX=0.25;exitY=0;exitDx=0;exitDy=0;" parent="1" source="HKwFbB_bQjfoJEp04Cz5-53" target="HKwFbB_bQjfoJEp04Cz5-50" edge="1">
          <mxGeometry width="160" relative="1" as="geometry">
            <mxPoint x="1660" y="980" as="sourcePoint" />
            <mxPoint x="1820" y="980" as="targetPoint" />
            <Array as="points">
              <mxPoint x="1800" y="863" />
              <mxPoint x="1749" y="863" />
            </Array>
          </mxGeometry>
        </mxCell>
        <mxCell id="HKwFbB_bQjfoJEp04Cz5-56" value="Shop" style="swimlane;fontStyle=1;align=center;verticalAlign=top;childLayout=stackLayout;horizontal=1;startSize=26;horizontalStack=0;resizeParent=1;resizeParentMax=0;resizeLast=0;collapsible=1;marginBottom=0;whiteSpace=wrap;html=1;" parent="1" vertex="1">
          <mxGeometry x="1240" y="747" width="250" height="164" as="geometry" />
        </mxCell>
        <mxCell id="HKwFbB_bQjfoJEp04Cz5-57" value="- availableBoosters: List&amp;lt;Booster&amp;gt;" style="text;strokeColor=none;fillColor=none;align=left;verticalAlign=top;spacingLeft=4;spacingRight=4;overflow=hidden;rotatable=0;points=[[0,0.5],[1,0.5]];portConstraint=eastwest;whiteSpace=wrap;html=1;" parent="HKwFbB_bQjfoJEp04Cz5-56" vertex="1">
          <mxGeometry y="26" width="250" height="26" as="geometry" />
        </mxCell>
        <mxCell id="HKwFbB_bQjfoJEp04Cz5-58" value="- stock: List&amp;lt;Booster&amp;gt;" style="text;strokeColor=none;fillColor=none;align=left;verticalAlign=top;spacingLeft=4;spacingRight=4;overflow=hidden;rotatable=0;points=[[0,0.5],[1,0.5]];portConstraint=eastwest;whiteSpace=wrap;html=1;" parent="HKwFbB_bQjfoJEp04Cz5-56" vertex="1">
          <mxGeometry y="52" width="250" height="26" as="geometry" />
        </mxCell>
        <mxCell id="HKwFbB_bQjfoJEp04Cz5-59" value="- prices: List&amp;lt;int&amp;gt;" style="text;strokeColor=none;fillColor=none;align=left;verticalAlign=top;spacingLeft=4;spacingRight=4;overflow=hidden;rotatable=0;points=[[0,0.5],[1,0.5]];portConstraint=eastwest;whiteSpace=wrap;html=1;" parent="HKwFbB_bQjfoJEp04Cz5-56" vertex="1">
          <mxGeometry y="78" width="250" height="26" as="geometry" />
        </mxCell>
        <mxCell id="HKwFbB_bQjfoJEp04Cz5-60" value="" style="line;strokeWidth=1;fillColor=none;align=left;verticalAlign=middle;spacingTop=-1;spacingLeft=3;spacingRight=3;rotatable=0;labelPosition=right;points=[];portConstraint=eastwest;strokeColor=inherit;" parent="HKwFbB_bQjfoJEp04Cz5-56" vertex="1">
          <mxGeometry y="104" width="250" height="8" as="geometry" />
        </mxCell>
        <mxCell id="HKwFbB_bQjfoJEp04Cz5-61" value="+ RefreshInventory(): void" style="text;strokeColor=none;fillColor=none;align=left;verticalAlign=top;spacingLeft=4;spacingRight=4;overflow=hidden;rotatable=0;points=[[0,0.5],[1,0.5]];portConstraint=eastwest;whiteSpace=wrap;html=1;" parent="HKwFbB_bQjfoJEp04Cz5-56" vertex="1">
          <mxGeometry y="112" width="250" height="26" as="geometry" />
        </mxCell>
        <mxCell id="HKwFbB_bQjfoJEp04Cz5-62" value="+ PurchaseBooster(Player, int): bool" style="text;strokeColor=none;fillColor=none;align=left;verticalAlign=top;spacingLeft=4;spacingRight=4;overflow=hidden;rotatable=0;points=[[0,0.5],[1,0.5]];portConstraint=eastwest;whiteSpace=wrap;html=1;" parent="HKwFbB_bQjfoJEp04Cz5-56" vertex="1">
          <mxGeometry y="138" width="250" height="26" as="geometry" />
        </mxCell>
        <mxCell id="HKwFbB_bQjfoJEp04Cz5-63" value="" style="endArrow=diamondThin;endFill=1;endSize=24;html=1;rounded=0;exitX=0;exitY=0;exitDx=0;exitDy=0;entryX=1.004;entryY=0.771;entryDx=0;entryDy=0;entryPerimeter=0;" parent="1" source="HKwFbB_bQjfoJEp04Cz5-56" target="HKwFbB_bQjfoJEp04Cz5-4" edge="1">
          <mxGeometry width="160" relative="1" as="geometry">
            <mxPoint x="1340" y="567" as="sourcePoint" />
            <mxPoint x="1030" y="387" as="targetPoint" />
            <Array as="points">
              <mxPoint x="1130" y="747" />
              <mxPoint x="1130" y="290" />
            </Array>
          </mxGeometry>
        </mxCell>
        <mxCell id="HKwFbB_bQjfoJEp04Cz5-64" value="Use" style="endArrow=open;endSize=12;dashed=1;html=1;rounded=0;entryX=0.387;entryY=-0.004;entryDx=0;entryDy=0;entryPerimeter=0;exitX=0.328;exitY=0.951;exitDx=0;exitDy=0;exitPerimeter=0;" parent="1" source="HKwFbB_bQjfoJEp04Cz5-38" target="HKwFbB_bQjfoJEp04Cz5-56" edge="1">
          <mxGeometry x="0.0148" width="160" relative="1" as="geometry">
            <mxPoint x="1337" y="700" as="sourcePoint" />
            <mxPoint x="1339" y="656" as="targetPoint" />
            <mxPoint as="offset" />
          </mxGeometry>
        </mxCell>
        <mxCell id="HKwFbB_bQjfoJEp04Cz5-65" value="" style="endArrow=diamondThin;endFill=0;endSize=24;html=1;rounded=0;exitX=0;exitY=0.5;exitDx=0;exitDy=0;entryX=0.998;entryY=0.112;entryDx=0;entryDy=0;entryPerimeter=0;" parent="1" source="HKwFbB_bQjfoJEp04Cz5-48" target="HKwFbB_bQjfoJEp04Cz5-57" edge="1">
          <mxGeometry width="160" relative="1" as="geometry">
            <mxPoint x="1590" y="567" as="sourcePoint" />
            <mxPoint x="1750" y="567" as="targetPoint" />
          </mxGeometry>
        </mxCell>
        <mxCell id="HKwFbB_bQjfoJEp04Cz5-66" value="HandEvaluator" style="swimlane;fontStyle=1;align=center;verticalAlign=top;childLayout=stackLayout;horizontal=1;startSize=26;horizontalStack=0;resizeParent=1;resizeParentMax=0;resizeLast=0;collapsible=1;marginBottom=0;whiteSpace=wrap;html=1;" parent="1" vertex="1">
          <mxGeometry x="600" y="270" width="220" height="112" as="geometry" />
        </mxCell>
        <mxCell id="HKwFbB_bQjfoJEp04Cz5-67" value="- patterns: List&amp;lt;HandPattern&amp;gt;" style="text;strokeColor=none;fillColor=none;align=left;verticalAlign=top;spacingLeft=4;spacingRight=4;overflow=hidden;rotatable=0;points=[[0,0.5],[1,0.5]];portConstraint=eastwest;whiteSpace=wrap;html=1;" parent="HKwFbB_bQjfoJEp04Cz5-66" vertex="1">
          <mxGeometry y="26" width="220" height="26" as="geometry" />
        </mxCell>
        <mxCell id="HKwFbB_bQjfoJEp04Cz5-68" value="" style="line;strokeWidth=1;fillColor=none;align=left;verticalAlign=middle;spacingTop=-1;spacingLeft=3;spacingRight=3;rotatable=0;labelPosition=right;points=[];portConstraint=eastwest;strokeColor=inherit;" parent="HKwFbB_bQjfoJEp04Cz5-66" vertex="1">
          <mxGeometry y="52" width="220" height="8" as="geometry" />
        </mxCell>
        <mxCell id="HKwFbB_bQjfoJEp04Cz5-69" value="+ Evaluate(): int" style="text;strokeColor=none;fillColor=none;align=left;verticalAlign=top;spacingLeft=4;spacingRight=4;overflow=hidden;rotatable=0;points=[[0,0.5],[1,0.5]];portConstraint=eastwest;whiteSpace=wrap;html=1;" parent="HKwFbB_bQjfoJEp04Cz5-66" vertex="1">
          <mxGeometry y="60" width="220" height="26" as="geometry" />
        </mxCell>
        <mxCell id="HKwFbB_bQjfoJEp04Cz5-70" value="+ EvaluateScore(List&amp;lt;int&amp;gt;, int): int" style="text;strokeColor=none;fillColor=none;align=left;verticalAlign=top;spacingLeft=4;spacingRight=4;overflow=hidden;rotatable=0;points=[[0,0.5],[1,0.5]];portConstraint=eastwest;whiteSpace=wrap;html=1;" parent="HKwFbB_bQjfoJEp04Cz5-66" vertex="1">
          <mxGeometry y="86" width="220" height="26" as="geometry" />
        </mxCell>
        <mxCell id="HKwFbB_bQjfoJEp04Cz5-71" value="pattern wybiera sobie jeden z patternow jakie moga przybrac kosci" style="whiteSpace=wrap;html=1;" parent="1" vertex="1">
          <mxGeometry x="590" y="152" width="120" height="60" as="geometry" />
        </mxCell>
        <mxCell id="HKwFbB_bQjfoJEp04Cz5-72" value="&lt;i&gt;HandPattern&lt;/i&gt;" style="swimlane;fontStyle=1;align=center;verticalAlign=top;childLayout=stackLayout;horizontal=1;startSize=26;horizontalStack=0;resizeParent=1;resizeParentMax=0;resizeLast=0;collapsible=1;marginBottom=0;whiteSpace=wrap;html=1;" parent="1" vertex="1">
          <mxGeometry x="190" y="200" width="160" height="190" as="geometry" />
        </mxCell>
        <mxCell id="HKwFbB_bQjfoJEp04Cz5-73" value="# priority: int" style="text;strokeColor=none;fillColor=none;align=left;verticalAlign=top;spacingLeft=4;spacingRight=4;overflow=hidden;rotatable=0;points=[[0,0.5],[1,0.5]];portConstraint=eastwest;whiteSpace=wrap;html=1;" parent="HKwFbB_bQjfoJEp04Cz5-72" vertex="1">
          <mxGeometry y="26" width="160" height="26" as="geometry" />
        </mxCell>
        <mxCell id="HKwFbB_bQjfoJEp04Cz5-74" value="# handLevel: int" style="text;strokeColor=none;fillColor=none;align=left;verticalAlign=top;spacingLeft=4;spacingRight=4;overflow=hidden;rotatable=0;points=[[0,0.5],[1,0.5]];portConstraint=eastwest;whiteSpace=wrap;html=1;" parent="HKwFbB_bQjfoJEp04Cz5-72" vertex="1">
          <mxGeometry y="52" width="160" height="26" as="geometry" />
        </mxCell>
        <mxCell id="HKwFbB_bQjfoJEp04Cz5-75" value="" style="line;strokeWidth=1;fillColor=none;align=left;verticalAlign=middle;spacingTop=-1;spacingLeft=3;spacingRight=3;rotatable=0;labelPosition=right;points=[];portConstraint=eastwest;strokeColor=inherit;" parent="HKwFbB_bQjfoJEp04Cz5-72" vertex="1">
          <mxGeometry y="78" width="160" height="8" as="geometry" />
        </mxCell>
        <mxCell id="HKwFbB_bQjfoJEp04Cz5-76" value="+ GetPriority(): int" style="text;strokeColor=none;fillColor=none;align=left;verticalAlign=top;spacingLeft=4;spacingRight=4;overflow=hidden;rotatable=0;points=[[0,0.5],[1,0.5]];portConstraint=eastwest;whiteSpace=wrap;html=1;" parent="HKwFbB_bQjfoJEp04Cz5-72" vertex="1">
          <mxGeometry y="86" width="160" height="26" as="geometry" />
        </mxCell>
        <mxCell id="HKwFbB_bQjfoJEp04Cz5-77" value="+Matches(List&amp;lt;int&amp;gt;): bool" style="text;strokeColor=none;fillColor=none;align=left;verticalAlign=top;spacingLeft=4;spacingRight=4;overflow=hidden;rotatable=0;points=[[0,0.5],[1,0.5]];portConstraint=eastwest;whiteSpace=wrap;html=1;" parent="HKwFbB_bQjfoJEp04Cz5-72" vertex="1">
          <mxGeometry y="112" width="160" height="26" as="geometry" />
        </mxCell>
        <mxCell id="HKwFbB_bQjfoJEp04Cz5-78" value="+Score(List&amp;lt;int&amp;gt;): int" style="text;strokeColor=none;fillColor=none;align=left;verticalAlign=top;spacingLeft=4;spacingRight=4;overflow=hidden;rotatable=0;points=[[0,0.5],[1,0.5]];portConstraint=eastwest;whiteSpace=wrap;html=1;" parent="HKwFbB_bQjfoJEp04Cz5-72" vertex="1">
          <mxGeometry y="138" width="160" height="26" as="geometry" />
        </mxCell>
        <mxCell id="HKwFbB_bQjfoJEp04Cz5-79" value="+ Upgarde(): void" style="text;strokeColor=none;fillColor=none;align=left;verticalAlign=top;spacingLeft=4;spacingRight=4;overflow=hidden;rotatable=0;points=[[0,0.5],[1,0.5]];portConstraint=eastwest;whiteSpace=wrap;html=1;" parent="HKwFbB_bQjfoJEp04Cz5-72" vertex="1">
          <mxGeometry y="164" width="160" height="26" as="geometry" />
        </mxCell>
        <mxCell id="HKwFbB_bQjfoJEp04Cz5-80" value="Yahtzee" style="swimlane;fontStyle=1;align=center;verticalAlign=top;childLayout=stackLayout;horizontal=1;startSize=26;horizontalStack=0;resizeParent=1;resizeParentMax=0;resizeLast=0;collapsible=1;marginBottom=0;whiteSpace=wrap;html=1;" parent="1" vertex="1">
          <mxGeometry x="40" y="472" width="160" height="34" as="geometry">
            <mxRectangle x="10" y="512" width="80" height="30" as="alternateBounds" />
          </mxGeometry>
        </mxCell>
        <mxCell id="HKwFbB_bQjfoJEp04Cz5-81" value="" style="line;strokeWidth=1;fillColor=none;align=left;verticalAlign=middle;spacingTop=-1;spacingLeft=3;spacingRight=3;rotatable=0;labelPosition=right;points=[];portConstraint=eastwest;strokeColor=inherit;" parent="HKwFbB_bQjfoJEp04Cz5-80" vertex="1">
          <mxGeometry y="26" width="160" height="8" as="geometry" />
        </mxCell>
        <mxCell id="HKwFbB_bQjfoJEp04Cz5-82" value="Straight" style="swimlane;fontStyle=1;align=center;verticalAlign=top;childLayout=stackLayout;horizontal=1;startSize=26;horizontalStack=0;resizeParent=1;resizeParentMax=0;resizeLast=0;collapsible=1;marginBottom=0;whiteSpace=wrap;html=1;" parent="1" vertex="1">
          <mxGeometry x="40" y="573" width="160" height="34" as="geometry" />
        </mxCell>
        <mxCell id="HKwFbB_bQjfoJEp04Cz5-83" value="" style="line;strokeWidth=1;fillColor=none;align=left;verticalAlign=middle;spacingTop=-1;spacingLeft=3;spacingRight=3;rotatable=0;labelPosition=right;points=[];portConstraint=eastwest;strokeColor=inherit;" parent="HKwFbB_bQjfoJEp04Cz5-82" vertex="1">
          <mxGeometry y="26" width="160" height="8" as="geometry" />
        </mxCell>
        <mxCell id="HKwFbB_bQjfoJEp04Cz5-84" value="FullHouse" style="swimlane;fontStyle=1;align=center;verticalAlign=top;childLayout=stackLayout;horizontal=1;startSize=26;horizontalStack=0;resizeParent=1;resizeParentMax=0;resizeLast=0;collapsible=1;marginBottom=0;whiteSpace=wrap;html=1;" parent="1" vertex="1">
          <mxGeometry x="40" y="630" width="160" height="34" as="geometry" />
        </mxCell>
        <mxCell id="HKwFbB_bQjfoJEp04Cz5-85" value="" style="line;strokeWidth=1;fillColor=none;align=left;verticalAlign=middle;spacingTop=-1;spacingLeft=3;spacingRight=3;rotatable=0;labelPosition=right;points=[];portConstraint=eastwest;strokeColor=inherit;" parent="HKwFbB_bQjfoJEp04Cz5-84" vertex="1">
          <mxGeometry y="26" width="160" height="8" as="geometry" />
        </mxCell>
        <mxCell id="HKwFbB_bQjfoJEp04Cz5-86" value="ThreeOfAKind" style="swimlane;fontStyle=1;align=center;verticalAlign=top;childLayout=stackLayout;horizontal=1;startSize=26;horizontalStack=0;resizeParent=1;resizeParentMax=0;resizeLast=0;collapsible=1;marginBottom=0;whiteSpace=wrap;html=1;" parent="1" vertex="1">
          <mxGeometry x="40" y="770" width="160" height="34" as="geometry" />
        </mxCell>
        <mxCell id="HKwFbB_bQjfoJEp04Cz5-87" value="" style="line;strokeWidth=1;fillColor=none;align=left;verticalAlign=middle;spacingTop=-1;spacingLeft=3;spacingRight=3;rotatable=0;labelPosition=right;points=[];portConstraint=eastwest;strokeColor=inherit;" parent="HKwFbB_bQjfoJEp04Cz5-86" vertex="1">
          <mxGeometry y="26" width="160" height="8" as="geometry" />
        </mxCell>
        <mxCell id="HKwFbB_bQjfoJEp04Cz5-88" value="TwoPair" style="swimlane;fontStyle=1;align=center;verticalAlign=top;childLayout=stackLayout;horizontal=1;startSize=26;horizontalStack=0;resizeParent=1;resizeParentMax=0;resizeLast=0;collapsible=1;marginBottom=0;whiteSpace=wrap;html=1;" parent="1" vertex="1">
          <mxGeometry x="40" y="870" width="160" height="34" as="geometry" />
        </mxCell>
        <mxCell id="HKwFbB_bQjfoJEp04Cz5-89" value="" style="line;strokeWidth=1;fillColor=none;align=left;verticalAlign=middle;spacingTop=-1;spacingLeft=3;spacingRight=3;rotatable=0;labelPosition=right;points=[];portConstraint=eastwest;strokeColor=inherit;" parent="HKwFbB_bQjfoJEp04Cz5-88" vertex="1">
          <mxGeometry y="26" width="160" height="8" as="geometry" />
        </mxCell>
        <mxCell id="HKwFbB_bQjfoJEp04Cz5-90" value="Pair" style="swimlane;fontStyle=1;align=center;verticalAlign=top;childLayout=stackLayout;horizontal=1;startSize=26;horizontalStack=0;resizeParent=1;resizeParentMax=0;resizeLast=0;collapsible=1;marginBottom=0;whiteSpace=wrap;html=1;" parent="1" vertex="1">
          <mxGeometry x="40" y="970" width="160" height="34" as="geometry" />
        </mxCell>
        <mxCell id="HKwFbB_bQjfoJEp04Cz5-91" value="" style="line;strokeWidth=1;fillColor=none;align=left;verticalAlign=middle;spacingTop=-1;spacingLeft=3;spacingRight=3;rotatable=0;labelPosition=right;points=[];portConstraint=eastwest;strokeColor=inherit;" parent="HKwFbB_bQjfoJEp04Cz5-90" vertex="1">
          <mxGeometry y="26" width="160" height="8" as="geometry" />
        </mxCell>
        <mxCell id="HKwFbB_bQjfoJEp04Cz5-92" value="Other" style="swimlane;fontStyle=1;align=center;verticalAlign=top;childLayout=stackLayout;horizontal=1;startSize=26;horizontalStack=0;resizeParent=1;resizeParentMax=0;resizeLast=0;collapsible=1;marginBottom=0;whiteSpace=wrap;html=1;" parent="1" vertex="1">
          <mxGeometry x="40" y="1070" width="160" height="34" as="geometry" />
        </mxCell>
        <mxCell id="HKwFbB_bQjfoJEp04Cz5-93" value="" style="line;strokeWidth=1;fillColor=none;align=left;verticalAlign=middle;spacingTop=-1;spacingLeft=3;spacingRight=3;rotatable=0;labelPosition=right;points=[];portConstraint=eastwest;strokeColor=inherit;" parent="HKwFbB_bQjfoJEp04Cz5-92" vertex="1">
          <mxGeometry y="26" width="160" height="8" as="geometry" />
        </mxCell>
        <mxCell id="HKwFbB_bQjfoJEp04Cz5-94" value="" style="endArrow=block;dashed=1;endFill=0;endSize=12;html=1;rounded=0;exitX=1;exitY=0;exitDx=0;exitDy=0;" parent="1" source="HKwFbB_bQjfoJEp04Cz5-80" edge="1">
          <mxGeometry width="160" relative="1" as="geometry">
            <mxPoint x="480" y="530" as="sourcePoint" />
            <mxPoint x="280" y="389" as="targetPoint" />
            <Array as="points">
              <mxPoint x="280" y="472" />
            </Array>
          </mxGeometry>
        </mxCell>
        <mxCell id="HKwFbB_bQjfoJEp04Cz5-95" value="" style="endArrow=none;dashed=1;html=1;rounded=0;exitX=1;exitY=0;exitDx=0;exitDy=0;" parent="1" source="HKwFbB_bQjfoJEp04Cz5-82" edge="1">
          <mxGeometry width="50" height="50" relative="1" as="geometry">
            <mxPoint x="550" y="690" as="sourcePoint" />
            <mxPoint x="280" y="470" as="targetPoint" />
            <Array as="points">
              <mxPoint x="280" y="573" />
            </Array>
          </mxGeometry>
        </mxCell>
        <mxCell id="HKwFbB_bQjfoJEp04Cz5-96" value="" style="endArrow=none;dashed=1;html=1;rounded=0;exitX=1;exitY=0;exitDx=0;exitDy=0;" parent="1" source="HKwFbB_bQjfoJEp04Cz5-84" edge="1">
          <mxGeometry width="50" height="50" relative="1" as="geometry">
            <mxPoint x="260" y="700" as="sourcePoint" />
            <mxPoint x="280" y="570" as="targetPoint" />
            <Array as="points">
              <mxPoint x="280" y="630" />
            </Array>
          </mxGeometry>
        </mxCell>
        <mxCell id="HKwFbB_bQjfoJEp04Cz5-97" value="" style="endArrow=none;dashed=1;html=1;rounded=0;exitX=1;exitY=0;exitDx=0;exitDy=0;" parent="1" source="HKwFbB_bQjfoJEp04Cz5-86" edge="1">
          <mxGeometry width="50" height="50" relative="1" as="geometry">
            <mxPoint x="280" y="760" as="sourcePoint" />
            <mxPoint x="280" y="630" as="targetPoint" />
            <Array as="points">
              <mxPoint x="280" y="770" />
            </Array>
          </mxGeometry>
        </mxCell>
        <mxCell id="HKwFbB_bQjfoJEp04Cz5-98" value="" style="endArrow=none;dashed=1;html=1;rounded=0;exitX=1;exitY=0;exitDx=0;exitDy=0;" parent="1" source="HKwFbB_bQjfoJEp04Cz5-88" edge="1">
          <mxGeometry width="50" height="50" relative="1" as="geometry">
            <mxPoint x="330" y="870" as="sourcePoint" />
            <mxPoint x="280" y="770" as="targetPoint" />
            <Array as="points">
              <mxPoint x="280" y="870" />
            </Array>
          </mxGeometry>
        </mxCell>
        <mxCell id="HKwFbB_bQjfoJEp04Cz5-99" value="" style="endArrow=none;dashed=1;html=1;rounded=0;exitX=1;exitY=0;exitDx=0;exitDy=0;" parent="1" source="HKwFbB_bQjfoJEp04Cz5-90" edge="1">
          <mxGeometry width="50" height="50" relative="1" as="geometry">
            <mxPoint x="250" y="1020" as="sourcePoint" />
            <mxPoint x="280" y="870" as="targetPoint" />
            <Array as="points">
              <mxPoint x="280" y="970" />
            </Array>
          </mxGeometry>
        </mxCell>
        <mxCell id="HKwFbB_bQjfoJEp04Cz5-100" value="" style="endArrow=none;dashed=1;html=1;rounded=0;exitX=1;exitY=0;exitDx=0;exitDy=0;" parent="1" source="HKwFbB_bQjfoJEp04Cz5-92" edge="1">
          <mxGeometry width="50" height="50" relative="1" as="geometry">
            <mxPoint x="270" y="1050" as="sourcePoint" />
            <mxPoint x="280" y="970" as="targetPoint" />
            <Array as="points">
              <mxPoint x="280" y="1070" />
            </Array>
          </mxGeometry>
        </mxCell>
        <mxCell id="HKwFbB_bQjfoJEp04Cz5-101" value="LevelManager" style="swimlane;fontStyle=1;align=center;verticalAlign=top;childLayout=stackLayout;horizontal=1;startSize=26;horizontalStack=0;resizeParent=1;resizeParentMax=0;resizeLast=0;collapsible=1;marginBottom=0;whiteSpace=wrap;html=1;" parent="1" vertex="1">
          <mxGeometry x="690" y="480" width="200" height="138" as="geometry" />
        </mxCell>
        <mxCell id="HKwFbB_bQjfoJEp04Cz5-102" value="Use" style="endArrow=open;endSize=12;dashed=1;html=1;rounded=0;fontSize=12;curved=1;entryX=1;entryY=0.5;entryDx=0;entryDy=0;" parent="HKwFbB_bQjfoJEp04Cz5-101" target="HKwFbB_bQjfoJEp04Cz5-78" edge="1">
          <mxGeometry x="0.3296" y="-21" width="160" relative="1" as="geometry">
            <mxPoint x="10" as="sourcePoint" />
            <mxPoint x="10" y="-70" as="targetPoint" />
            <Array as="points">
              <mxPoint x="10" y="-59" />
            </Array>
            <mxPoint as="offset" />
          </mxGeometry>
        </mxCell>
        <mxCell id="HKwFbB_bQjfoJEp04Cz5-103" value="- currentLevel: int" style="text;strokeColor=none;fillColor=none;align=left;verticalAlign=top;spacingLeft=4;spacingRight=4;overflow=hidden;rotatable=0;points=[[0,0.5],[1,0.5]];portConstraint=eastwest;whiteSpace=wrap;html=1;" parent="HKwFbB_bQjfoJEp04Cz5-101" vertex="1">
          <mxGeometry y="26" width="200" height="26" as="geometry" />
        </mxCell>
        <mxCell id="HKwFbB_bQjfoJEp04Cz5-104" value="" style="line;strokeWidth=1;fillColor=none;align=left;verticalAlign=middle;spacingTop=-1;spacingLeft=3;spacingRight=3;rotatable=0;labelPosition=right;points=[];portConstraint=eastwest;strokeColor=inherit;" parent="HKwFbB_bQjfoJEp04Cz5-101" vertex="1">
          <mxGeometry y="52" width="200" height="8" as="geometry" />
        </mxCell>
        <mxCell id="HKwFbB_bQjfoJEp04Cz5-105" value="+ LevelUp(int): void" style="text;strokeColor=none;fillColor=none;align=left;verticalAlign=top;spacingLeft=4;spacingRight=4;overflow=hidden;rotatable=0;points=[[0,0.5],[1,0.5]];portConstraint=eastwest;whiteSpace=wrap;html=1;" parent="HKwFbB_bQjfoJEp04Cz5-101" vertex="1">
          <mxGeometry y="60" width="200" height="26" as="geometry" />
        </mxCell>
        <mxCell id="HKwFbB_bQjfoJEp04Cz5-106" value="+ createOpponent(): Opponent" style="text;strokeColor=none;fillColor=none;align=left;verticalAlign=top;spacingLeft=4;spacingRight=4;overflow=hidden;rotatable=0;points=[[0,0.5],[1,0.5]];portConstraint=eastwest;whiteSpace=wrap;html=1;" parent="HKwFbB_bQjfoJEp04Cz5-101" vertex="1">
          <mxGeometry y="86" width="200" height="26" as="geometry" />
        </mxCell>
        <mxCell id="HKwFbB_bQjfoJEp04Cz5-107" value="+ NextLevel(): Opponent" style="text;strokeColor=none;fillColor=none;align=left;verticalAlign=top;spacingLeft=4;spacingRight=4;overflow=hidden;rotatable=0;points=[[0,0.5],[1,0.5]];portConstraint=eastwest;whiteSpace=wrap;html=1;" parent="HKwFbB_bQjfoJEp04Cz5-101" vertex="1">
          <mxGeometry y="112" width="200" height="26" as="geometry" />
        </mxCell>
        <mxCell id="HKwFbB_bQjfoJEp04Cz5-108" value="" style="endArrow=none;html=1;rounded=0;exitX=0.75;exitY=0;exitDx=0;exitDy=0;" parent="1" source="HKwFbB_bQjfoJEp04Cz5-51" edge="1">
          <mxGeometry width="50" height="50" relative="1" as="geometry">
            <mxPoint x="1660" y="903" as="sourcePoint" />
            <mxPoint x="1750" y="863" as="targetPoint" />
            <Array as="points">
              <mxPoint x="1690" y="863" />
            </Array>
          </mxGeometry>
        </mxCell>
        <mxCell id="HKwFbB_bQjfoJEp04Cz5-109" value="NormalOpponent" style="swimlane;fontStyle=1;align=center;verticalAlign=top;childLayout=stackLayout;horizontal=1;startSize=26;horizontalStack=0;resizeParent=1;resizeParentMax=0;resizeLast=0;collapsible=1;marginBottom=0;whiteSpace=wrap;html=1;" parent="1" vertex="1">
          <mxGeometry x="590" y="996" width="160" height="34" as="geometry" />
        </mxCell>
        <mxCell id="HKwFbB_bQjfoJEp04Cz5-110" value="" style="line;strokeWidth=1;fillColor=none;align=left;verticalAlign=middle;spacingTop=-1;spacingLeft=3;spacingRight=3;rotatable=0;labelPosition=right;points=[];portConstraint=eastwest;strokeColor=inherit;" parent="HKwFbB_bQjfoJEp04Cz5-109" vertex="1">
          <mxGeometry y="26" width="160" height="8" as="geometry" />
        </mxCell>
        <mxCell id="HKwFbB_bQjfoJEp04Cz5-111" value="Boss" style="swimlane;fontStyle=1;align=center;verticalAlign=top;childLayout=stackLayout;horizontal=1;startSize=26;horizontalStack=0;resizeParent=1;resizeParentMax=0;resizeLast=0;collapsible=1;marginBottom=0;whiteSpace=wrap;html=1;" parent="1" vertex="1">
          <mxGeometry x="800" y="996" width="240" height="86" as="geometry" />
        </mxCell>
        <mxCell id="HKwFbB_bQjfoJEp04Cz5-112" value="- effects: List&amp;lt;IPlayerEffect&amp;gt;" style="text;strokeColor=none;fillColor=none;align=left;verticalAlign=top;spacingLeft=4;spacingRight=4;overflow=hidden;rotatable=0;points=[[0,0.5],[1,0.5]];portConstraint=eastwest;whiteSpace=wrap;html=1;" parent="HKwFbB_bQjfoJEp04Cz5-111" vertex="1">
          <mxGeometry y="26" width="240" height="26" as="geometry" />
        </mxCell>
        <mxCell id="HKwFbB_bQjfoJEp04Cz5-113" value="- currentEffect: IPlayerEffect" style="text;strokeColor=none;fillColor=none;align=left;verticalAlign=top;spacingLeft=4;spacingRight=4;overflow=hidden;rotatable=0;points=[[0,0.5],[1,0.5]];portConstraint=eastwest;whiteSpace=wrap;html=1;" parent="HKwFbB_bQjfoJEp04Cz5-111" vertex="1">
          <mxGeometry y="52" width="240" height="26" as="geometry" />
        </mxCell>
        <mxCell id="HKwFbB_bQjfoJEp04Cz5-114" value="" style="line;strokeWidth=1;fillColor=none;align=left;verticalAlign=middle;spacingTop=-1;spacingLeft=3;spacingRight=3;rotatable=0;labelPosition=right;points=[];portConstraint=eastwest;strokeColor=inherit;" parent="HKwFbB_bQjfoJEp04Cz5-111" vertex="1">
          <mxGeometry y="78" width="240" height="8" as="geometry" />
        </mxCell>
        <mxCell id="HKwFbB_bQjfoJEp04Cz5-115" value="DiceSet" style="swimlane;fontStyle=1;align=center;verticalAlign=top;childLayout=stackLayout;horizontal=1;startSize=26;horizontalStack=0;resizeParent=1;resizeParentMax=0;resizeLast=0;collapsible=1;marginBottom=0;whiteSpace=wrap;html=1;" parent="1" vertex="1">
          <mxGeometry x="1300" y="40" width="160" height="112" as="geometry" />
        </mxCell>
        <mxCell id="HKwFbB_bQjfoJEp04Cz5-116" value="- dices: List&amp;lt;Dice&amp;gt;" style="text;strokeColor=none;fillColor=none;align=left;verticalAlign=top;spacingLeft=4;spacingRight=4;overflow=hidden;rotatable=0;points=[[0,0.5],[1,0.5]];portConstraint=eastwest;whiteSpace=wrap;html=1;" parent="HKwFbB_bQjfoJEp04Cz5-115" vertex="1">
          <mxGeometry y="26" width="160" height="26" as="geometry" />
        </mxCell>
        <mxCell id="HKwFbB_bQjfoJEp04Cz5-117" value="" style="line;strokeWidth=1;fillColor=none;align=left;verticalAlign=middle;spacingTop=-1;spacingLeft=3;spacingRight=3;rotatable=0;labelPosition=right;points=[];portConstraint=eastwest;strokeColor=inherit;" parent="HKwFbB_bQjfoJEp04Cz5-115" vertex="1">
          <mxGeometry y="52" width="160" height="8" as="geometry" />
        </mxCell>
        <mxCell id="HKwFbB_bQjfoJEp04Cz5-118" value="+ DiceRoll(int): void" style="text;strokeColor=none;fillColor=none;align=left;verticalAlign=top;spacingLeft=4;spacingRight=4;overflow=hidden;rotatable=0;points=[[0,0.5],[1,0.5]];portConstraint=eastwest;whiteSpace=wrap;html=1;" parent="HKwFbB_bQjfoJEp04Cz5-115" vertex="1">
          <mxGeometry y="60" width="160" height="26" as="geometry" />
        </mxCell>
        <mxCell id="HKwFbB_bQjfoJEp04Cz5-119" value="+ GetValues(): List&amp;lt;int&amp;gt;" style="text;strokeColor=none;fillColor=none;align=left;verticalAlign=top;spacingLeft=4;spacingRight=4;overflow=hidden;rotatable=0;points=[[0,0.5],[1,0.5]];portConstraint=eastwest;whiteSpace=wrap;html=1;" parent="HKwFbB_bQjfoJEp04Cz5-115" vertex="1">
          <mxGeometry y="86" width="160" height="26" as="geometry" />
        </mxCell>
        <mxCell id="HKwFbB_bQjfoJEp04Cz5-120" value="Dice" style="swimlane;fontStyle=1;align=center;verticalAlign=top;childLayout=stackLayout;horizontal=1;startSize=26;horizontalStack=0;resizeParent=1;resizeParentMax=0;resizeLast=0;collapsible=1;marginBottom=0;whiteSpace=wrap;html=1;" parent="1" vertex="1">
          <mxGeometry x="1590" y="40" width="160" height="112" as="geometry" />
        </mxCell>
        <mxCell id="HKwFbB_bQjfoJEp04Cz5-121" value="- value: int" style="text;strokeColor=none;fillColor=none;align=left;verticalAlign=top;spacingLeft=4;spacingRight=4;overflow=hidden;rotatable=0;points=[[0,0.5],[1,0.5]];portConstraint=eastwest;whiteSpace=wrap;html=1;" parent="HKwFbB_bQjfoJEp04Cz5-120" vertex="1">
          <mxGeometry y="26" width="160" height="26" as="geometry" />
        </mxCell>
        <mxCell id="HKwFbB_bQjfoJEp04Cz5-122" value="" style="line;strokeWidth=1;fillColor=none;align=left;verticalAlign=middle;spacingTop=-1;spacingLeft=3;spacingRight=3;rotatable=0;labelPosition=right;points=[];portConstraint=eastwest;strokeColor=inherit;" parent="HKwFbB_bQjfoJEp04Cz5-120" vertex="1">
          <mxGeometry y="52" width="160" height="8" as="geometry" />
        </mxCell>
        <mxCell id="HKwFbB_bQjfoJEp04Cz5-123" value="+ Roll(): void" style="text;strokeColor=none;fillColor=none;align=left;verticalAlign=top;spacingLeft=4;spacingRight=4;overflow=hidden;rotatable=0;points=[[0,0.5],[1,0.5]];portConstraint=eastwest;whiteSpace=wrap;html=1;" parent="HKwFbB_bQjfoJEp04Cz5-120" vertex="1">
          <mxGeometry y="60" width="160" height="26" as="geometry" />
        </mxCell>
        <mxCell id="HKwFbB_bQjfoJEp04Cz5-124" value="+ GetValue(): int" style="text;strokeColor=none;fillColor=none;align=left;verticalAlign=top;spacingLeft=4;spacingRight=4;overflow=hidden;rotatable=0;points=[[0,0.5],[1,0.5]];portConstraint=eastwest;whiteSpace=wrap;html=1;" parent="HKwFbB_bQjfoJEp04Cz5-120" vertex="1">
          <mxGeometry y="86" width="160" height="26" as="geometry" />
        </mxCell>
        <mxCell id="HKwFbB_bQjfoJEp04Cz5-125" value="" style="endArrow=diamondThin;endFill=1;endSize=24;html=1;rounded=0;exitX=0.8;exitY=0;exitDx=0;exitDy=0;exitPerimeter=0;entryX=0.007;entryY=0.092;entryDx=0;entryDy=0;entryPerimeter=0;" parent="1" source="HKwFbB_bQjfoJEp04Cz5-101" target="HKwFbB_bQjfoJEp04Cz5-5" edge="1">
          <mxGeometry width="160" relative="1" as="geometry">
            <mxPoint x="750" y="420" as="sourcePoint" />
            <mxPoint x="910" y="420" as="targetPoint" />
            <Array as="points">
              <mxPoint x="850" y="300" />
            </Array>
          </mxGeometry>
        </mxCell>
        <mxCell id="HKwFbB_bQjfoJEp04Cz5-126" value="Extends" style="endArrow=block;endSize=16;endFill=0;html=1;rounded=0;entryX=0.348;entryY=0.923;entryDx=0;entryDy=0;entryPerimeter=0;" parent="1" target="-SWtafrbvMWJWGkDT9lV-3" edge="1">
          <mxGeometry width="160" relative="1" as="geometry">
            <mxPoint x="683" y="996" as="sourcePoint" />
            <mxPoint x="777" y="916" as="targetPoint" />
            <Array as="points">
              <mxPoint x="683.1" y="946" />
              <mxPoint x="776.1" y="946" />
            </Array>
          </mxGeometry>
        </mxCell>
        <mxCell id="HKwFbB_bQjfoJEp04Cz5-127" value="" style="endArrow=none;html=1;rounded=0;" parent="1" edge="1">
          <mxGeometry width="50" height="50" relative="1" as="geometry">
            <mxPoint x="860" y="993" as="sourcePoint" />
            <mxPoint x="770" y="947" as="targetPoint" />
            <Array as="points">
              <mxPoint x="860" y="947" />
            </Array>
          </mxGeometry>
        </mxCell>
        <mxCell id="HKwFbB_bQjfoJEp04Cz5-128" value="" style="endArrow=diamondThin;endFill=0;endSize=24;html=1;rounded=0;entryX=0.5;entryY=0;entryDx=0;entryDy=0;exitX=0.466;exitY=0.929;exitDx=0;exitDy=0;exitPerimeter=0;" parent="1" source="HKwFbB_bQjfoJEp04Cz5-119" target="HKwFbB_bQjfoJEp04Cz5-22" edge="1">
          <mxGeometry width="160" relative="1" as="geometry">
            <mxPoint x="1375" y="160" as="sourcePoint" />
            <mxPoint x="1440" y="230" as="targetPoint" />
          </mxGeometry>
        </mxCell>
        <mxCell id="HKwFbB_bQjfoJEp04Cz5-129" value="ThrowManager" style="swimlane;fontStyle=1;align=center;verticalAlign=top;childLayout=stackLayout;horizontal=1;startSize=26;horizontalStack=0;resizeParent=1;resizeParentMax=0;resizeLast=0;collapsible=1;marginBottom=0;whiteSpace=wrap;html=1;" parent="1" vertex="1">
          <mxGeometry x="1590" y="174" width="230" height="216" as="geometry" />
        </mxCell>
        <mxCell id="HKwFbB_bQjfoJEp04Cz5-130" value="+ ThrowsLeft: int" style="text;strokeColor=none;fillColor=none;align=left;verticalAlign=top;spacingLeft=4;spacingRight=4;overflow=hidden;rotatable=0;points=[[0,0.5],[1,0.5]];portConstraint=eastwest;whiteSpace=wrap;html=1;" parent="HKwFbB_bQjfoJEp04Cz5-129" vertex="1">
          <mxGeometry y="26" width="230" height="26" as="geometry" />
        </mxCell>
        <mxCell id="HKwFbB_bQjfoJEp04Cz5-131" value="- rerollsLeft: int" style="text;strokeColor=none;fillColor=none;align=left;verticalAlign=top;spacingLeft=4;spacingRight=4;overflow=hidden;rotatable=0;points=[[0,0.5],[1,0.5]];portConstraint=eastwest;whiteSpace=wrap;html=1;" parent="HKwFbB_bQjfoJEp04Cz5-129" vertex="1">
          <mxGeometry y="52" width="230" height="26" as="geometry" />
        </mxCell>
        <mxCell id="HKwFbB_bQjfoJEp04Cz5-132" value="- keepFlags[5]: bool" style="text;strokeColor=none;fillColor=none;align=left;verticalAlign=top;spacingLeft=4;spacingRight=4;overflow=hidden;rotatable=0;points=[[0,0.5],[1,0.5]];portConstraint=eastwest;whiteSpace=wrap;html=1;" parent="HKwFbB_bQjfoJEp04Cz5-129" vertex="1">
          <mxGeometry y="78" width="230" height="26" as="geometry" />
        </mxCell>
        <mxCell id="HKwFbB_bQjfoJEp04Cz5-133" value="" style="line;strokeWidth=1;fillColor=none;align=left;verticalAlign=middle;spacingTop=-1;spacingLeft=3;spacingRight=3;rotatable=0;labelPosition=right;points=[];portConstraint=eastwest;strokeColor=inherit;" parent="HKwFbB_bQjfoJEp04Cz5-129" vertex="1">
          <mxGeometry y="104" width="230" height="8" as="geometry" />
        </mxCell>
        <mxCell id="HKwFbB_bQjfoJEp04Cz5-134" value="+ Reroll(DiceSet): bool" style="text;strokeColor=none;fillColor=none;align=left;verticalAlign=top;spacingLeft=4;spacingRight=4;overflow=hidden;rotatable=0;points=[[0,0.5],[1,0.5]];portConstraint=eastwest;whiteSpace=wrap;html=1;" parent="HKwFbB_bQjfoJEp04Cz5-129" vertex="1">
          <mxGeometry y="112" width="230" height="26" as="geometry" />
        </mxCell>
        <mxCell id="HKwFbB_bQjfoJEp04Cz5-135" value="+ Throw(DiceSet): List&amp;lt;int&amp;gt;" style="text;strokeColor=none;fillColor=none;align=left;verticalAlign=top;spacingLeft=4;spacingRight=4;overflow=hidden;rotatable=0;points=[[0,0.5],[1,0.5]];portConstraint=eastwest;whiteSpace=wrap;html=1;" parent="HKwFbB_bQjfoJEp04Cz5-129" vertex="1">
          <mxGeometry y="138" width="230" height="26" as="geometry" />
        </mxCell>
        <mxCell id="HKwFbB_bQjfoJEp04Cz5-136" value="+ ResetTM(int, int): void" style="text;strokeColor=none;fillColor=none;align=left;verticalAlign=top;spacingLeft=4;spacingRight=4;overflow=hidden;rotatable=0;points=[[0,0.5],[1,0.5]];portConstraint=eastwest;whiteSpace=wrap;html=1;" parent="HKwFbB_bQjfoJEp04Cz5-129" vertex="1">
          <mxGeometry y="164" width="230" height="26" as="geometry" />
        </mxCell>
        <mxCell id="HKwFbB_bQjfoJEp04Cz5-137" value="+ SetRerollFlag(int): void" style="text;strokeColor=none;fillColor=none;align=left;verticalAlign=top;spacingLeft=4;spacingRight=4;overflow=hidden;rotatable=0;points=[[0,0.5],[1,0.5]];portConstraint=eastwest;whiteSpace=wrap;html=1;" parent="HKwFbB_bQjfoJEp04Cz5-129" vertex="1">
          <mxGeometry y="190" width="230" height="26" as="geometry" />
        </mxCell>
        <mxCell id="HKwFbB_bQjfoJEp04Cz5-138" value="" style="endArrow=diamondThin;endFill=1;endSize=24;html=1;rounded=0;exitX=-0.018;exitY=0.137;exitDx=0;exitDy=0;exitPerimeter=0;" parent="1" source="HKwFbB_bQjfoJEp04Cz5-41" edge="1">
          <mxGeometry width="160" relative="1" as="geometry">
            <mxPoint x="1490" y="477" as="sourcePoint" />
            <mxPoint x="1500" y="510" as="targetPoint" />
          </mxGeometry>
        </mxCell>
        <mxCell id="HKwFbB_bQjfoJEp04Cz5-139" value="" style="endArrow=diamondThin;endFill=1;endSize=24;html=1;rounded=0;exitX=1;exitY=0.5;exitDx=0;exitDy=0;" parent="1" source="HKwFbB_bQjfoJEp04Cz5-77" target="HKwFbB_bQjfoJEp04Cz5-69" edge="1">
          <mxGeometry width="160" relative="1" as="geometry">
            <mxPoint x="360" y="330" as="sourcePoint" />
            <mxPoint x="420" y="330" as="targetPoint" />
          </mxGeometry>
        </mxCell>
        <mxCell id="HKwFbB_bQjfoJEp04Cz5-140" value="Use" style="endArrow=open;endSize=12;dashed=1;html=1;rounded=0;exitX=1;exitY=0;exitDx=0;exitDy=0;entryX=0;entryY=0;entryDx=0;entryDy=0;" parent="1" source="HKwFbB_bQjfoJEp04Cz5-66" target="HKwFbB_bQjfoJEp04Cz5-22" edge="1">
          <mxGeometry width="160" relative="1" as="geometry">
            <mxPoint x="930" y="150" as="sourcePoint" />
            <mxPoint x="1300" y="90" as="targetPoint" />
            <Array as="points">
              <mxPoint x="820" y="90" />
              <mxPoint x="1250" y="90" />
            </Array>
          </mxGeometry>
        </mxCell>
        <mxCell id="HKwFbB_bQjfoJEp04Cz5-141" value="" style="endArrow=diamondThin;endFill=1;endSize=24;html=1;rounded=0;exitX=0;exitY=0.5;exitDx=0;exitDy=0;entryX=1;entryY=0.5;entryDx=0;entryDy=0;" parent="1" source="HKwFbB_bQjfoJEp04Cz5-121" target="HKwFbB_bQjfoJEp04Cz5-116" edge="1">
          <mxGeometry width="160" relative="1" as="geometry">
            <mxPoint x="1480" y="120" as="sourcePoint" />
            <mxPoint x="1640" y="120" as="targetPoint" />
          </mxGeometry>
        </mxCell>
        <mxCell id="HKwFbB_bQjfoJEp04Cz5-142" value="" style="endArrow=diamondThin;endFill=1;endSize=24;html=1;rounded=0;entryX=0;entryY=0.5;entryDx=0;entryDy=0;" parent="1" target="HKwFbB_bQjfoJEp04Cz5-3" edge="1">
          <mxGeometry width="160" relative="1" as="geometry">
            <mxPoint x="824" y="270" as="sourcePoint" />
            <mxPoint x="1000" y="290" as="targetPoint" />
          </mxGeometry>
        </mxCell>
        <mxCell id="HKwFbB_bQjfoJEp04Cz5-143" value="Każda klasa posiada swój priorty oraz implementuje metode Score" style="whiteSpace=wrap;html=1;" parent="1" vertex="1">
          <mxGeometry x="40" y="390" width="120" height="60" as="geometry" />
        </mxCell>
        <mxCell id="HKwFbB_bQjfoJEp04Cz5-144" value="Use" style="endArrow=open;endSize=12;dashed=1;html=1;rounded=0;exitX=-0.014;exitY=0.931;exitDx=0;exitDy=0;entryX=1.001;entryY=0.067;entryDx=0;entryDy=0;exitPerimeter=0;entryPerimeter=0;" parent="1" source="HKwFbB_bQjfoJEp04Cz5-33" target="HKwFbB_bQjfoJEp04Cz5-180" edge="1">
          <mxGeometry x="0.0393" y="-20" width="160" relative="1" as="geometry">
            <mxPoint x="1150" y="470" as="sourcePoint" />
            <mxPoint x="871.0000000000002" y="719" as="targetPoint" />
            <Array as="points">
              <mxPoint x="1160" y="532" />
              <mxPoint x="1160" y="719" />
            </Array>
            <mxPoint as="offset" />
          </mxGeometry>
        </mxCell>
        <mxCell id="HKwFbB_bQjfoJEp04Cz5-145" value="&amp;lt;&amp;lt;IPlayerEffect&amp;gt;&amp;gt;" style="swimlane;fontStyle=0;childLayout=stackLayout;horizontal=1;startSize=26;fillColor=none;horizontalStack=0;resizeParent=1;resizeParentMax=0;resizeLast=0;collapsible=1;marginBottom=0;whiteSpace=wrap;html=1;" parent="1" vertex="1">
          <mxGeometry x="1110" y="1013" width="180" height="78" as="geometry" />
        </mxCell>
        <mxCell id="HKwFbB_bQjfoJEp04Cz5-146" value="+ApplyEffect(Player): void" style="text;strokeColor=none;fillColor=none;align=left;verticalAlign=top;spacingLeft=4;spacingRight=4;overflow=hidden;rotatable=0;points=[[0,0.5],[1,0.5]];portConstraint=eastwest;whiteSpace=wrap;html=1;" parent="HKwFbB_bQjfoJEp04Cz5-145" vertex="1">
          <mxGeometry y="26" width="180" height="26" as="geometry" />
        </mxCell>
        <mxCell id="HKwFbB_bQjfoJEp04Cz5-147" value="+ Description(): string" style="text;strokeColor=none;fillColor=none;align=left;verticalAlign=top;spacingLeft=4;spacingRight=4;overflow=hidden;rotatable=0;points=[[0,0.5],[1,0.5]];portConstraint=eastwest;whiteSpace=wrap;html=1;" parent="HKwFbB_bQjfoJEp04Cz5-145" vertex="1">
          <mxGeometry y="52" width="180" height="26" as="geometry" />
        </mxCell>
        <mxCell id="HKwFbB_bQjfoJEp04Cz5-148" value="" style="endArrow=diamondThin;endFill=0;endSize=24;html=1;rounded=0;fontSize=12;curved=1;exitX=0;exitY=0.25;exitDx=0;exitDy=0;entryX=1;entryY=0.5;entryDx=0;entryDy=0;" parent="1" source="HKwFbB_bQjfoJEp04Cz5-145" target="HKwFbB_bQjfoJEp04Cz5-112" edge="1">
          <mxGeometry width="160" relative="1" as="geometry">
            <mxPoint x="950" y="940" as="sourcePoint" />
            <mxPoint x="1110" y="940" as="targetPoint" />
          </mxGeometry>
        </mxCell>
        <mxCell id="HKwFbB_bQjfoJEp04Cz5-149" value="Wszedzie gdzie pola są public to są właściwości get private set" style="rounded=0;whiteSpace=wrap;html=1;" parent="1" vertex="1">
          <mxGeometry x="400" y="152" width="120" height="60" as="geometry" />
        </mxCell>
        <mxCell id="HKwFbB_bQjfoJEp04Cz5-150" value="BoosterCalculator" style="swimlane;fontStyle=1;align=center;verticalAlign=top;childLayout=stackLayout;horizontal=1;startSize=26;horizontalStack=0;resizeParent=1;resizeParentMax=0;resizeLast=0;collapsible=1;marginBottom=0;whiteSpace=wrap;html=1;" parent="1" vertex="1">
          <mxGeometry x="1590" y="409" width="210" height="60" as="geometry" />
        </mxCell>
        <mxCell id="HKwFbB_bQjfoJEp04Cz5-151" value="" style="line;strokeWidth=1;fillColor=none;align=left;verticalAlign=middle;spacingTop=-1;spacingLeft=3;spacingRight=3;rotatable=0;labelPosition=right;points=[];portConstraint=eastwest;strokeColor=inherit;" parent="HKwFbB_bQjfoJEp04Cz5-150" vertex="1">
          <mxGeometry y="26" width="210" height="8" as="geometry" />
        </mxCell>
        <mxCell id="HKwFbB_bQjfoJEp04Cz5-152" value="+CountBoost(BoosterInventory): int" style="text;strokeColor=none;fillColor=none;align=left;verticalAlign=top;spacingLeft=4;spacingRight=4;overflow=hidden;rotatable=0;points=[[0,0.5],[1,0.5]];portConstraint=eastwest;whiteSpace=wrap;html=1;" parent="HKwFbB_bQjfoJEp04Cz5-150" vertex="1">
          <mxGeometry y="34" width="210" height="26" as="geometry" />
        </mxCell>
        <mxCell id="HKwFbB_bQjfoJEp04Cz5-153" value="ComboBooster" style="swimlane;fontStyle=1;align=center;verticalAlign=top;childLayout=stackLayout;horizontal=1;startSize=26;horizontalStack=0;resizeParent=1;resizeParentMax=0;resizeLast=0;collapsible=1;marginBottom=0;whiteSpace=wrap;html=1;" parent="1" vertex="1">
          <mxGeometry x="1930" y="900" width="160" height="34" as="geometry" />
        </mxCell>
        <mxCell id="HKwFbB_bQjfoJEp04Cz5-154" value="" style="line;strokeWidth=1;fillColor=none;align=left;verticalAlign=middle;spacingTop=-1;spacingLeft=3;spacingRight=3;rotatable=0;labelPosition=right;points=[];portConstraint=eastwest;strokeColor=inherit;" parent="HKwFbB_bQjfoJEp04Cz5-153" vertex="1">
          <mxGeometry y="26" width="160" height="8" as="geometry" />
        </mxCell>
        <mxCell id="HKwFbB_bQjfoJEp04Cz5-155" value="" style="endArrow=none;html=1;rounded=0;exitX=0.179;exitY=-0.096;exitDx=0;exitDy=0;exitPerimeter=0;" parent="1" source="HKwFbB_bQjfoJEp04Cz5-153" edge="1">
          <mxGeometry width="50" height="50" relative="1" as="geometry">
            <mxPoint x="1970" y="900" as="sourcePoint" />
            <mxPoint x="1800" y="860" as="targetPoint" />
            <Array as="points">
              <mxPoint x="1960" y="860" />
            </Array>
          </mxGeometry>
        </mxCell>
        <mxCell id="HKwFbB_bQjfoJEp04Cz5-156" value="Use" style="endArrow=open;endSize=12;dashed=1;html=1;rounded=0;fontSize=12;curved=1;exitX=1;exitY=0.5;exitDx=0;exitDy=0;entryX=0;entryY=0.5;entryDx=0;entryDy=0;" parent="1" source="HKwFbB_bQjfoJEp04Cz5-28" target="HKwFbB_bQjfoJEp04Cz5-150" edge="1">
          <mxGeometry width="160" relative="1" as="geometry">
            <mxPoint x="1470" y="440" as="sourcePoint" />
            <mxPoint x="1630" y="440" as="targetPoint" />
          </mxGeometry>
        </mxCell>
        <mxCell id="HKwFbB_bQjfoJEp04Cz5-157" value="pole boosterInv jest ustawione na&amp;nbsp;&lt;div&gt;{get; private set; )&lt;/div&gt;" style="rounded=0;whiteSpace=wrap;html=1;" parent="1" vertex="1">
          <mxGeometry x="1530" y="570" width="120" height="60" as="geometry" />
        </mxCell>
        <mxCell id="HKwFbB_bQjfoJEp04Cz5-158" value="BoosterCreator" style="swimlane;fontStyle=1;align=center;verticalAlign=top;childLayout=stackLayout;horizontal=1;startSize=26;horizontalStack=0;resizeParent=1;resizeParentMax=0;resizeLast=0;collapsible=1;marginBottom=0;whiteSpace=wrap;html=1;" parent="1" vertex="1">
          <mxGeometry x="960" y="760" width="220" height="86" as="geometry" />
        </mxCell>
        <mxCell id="HKwFbB_bQjfoJEp04Cz5-159" value="- booster: List&amp;lt;Booster&amp;gt;" style="text;strokeColor=none;fillColor=none;align=left;verticalAlign=top;spacingLeft=4;spacingRight=4;overflow=hidden;rotatable=0;points=[[0,0.5],[1,0.5]];portConstraint=eastwest;whiteSpace=wrap;html=1;" parent="HKwFbB_bQjfoJEp04Cz5-158" vertex="1">
          <mxGeometry y="26" width="220" height="26" as="geometry" />
        </mxCell>
        <mxCell id="HKwFbB_bQjfoJEp04Cz5-160" value="" style="line;strokeWidth=1;fillColor=none;align=left;verticalAlign=middle;spacingTop=-1;spacingLeft=3;spacingRight=3;rotatable=0;labelPosition=right;points=[];portConstraint=eastwest;strokeColor=inherit;" parent="HKwFbB_bQjfoJEp04Cz5-158" vertex="1">
          <mxGeometry y="52" width="220" height="8" as="geometry" />
        </mxCell>
        <mxCell id="HKwFbB_bQjfoJEp04Cz5-161" value="+ CreateBoosters(): List&amp;lt;Booster&amp;gt;" style="text;strokeColor=none;fillColor=none;align=left;verticalAlign=top;spacingLeft=4;spacingRight=4;overflow=hidden;rotatable=0;points=[[0,0.5],[1,0.5]];portConstraint=eastwest;whiteSpace=wrap;html=1;" parent="HKwFbB_bQjfoJEp04Cz5-158" vertex="1">
          <mxGeometry y="60" width="220" height="26" as="geometry" />
        </mxCell>
        <mxCell id="HKwFbB_bQjfoJEp04Cz5-162" value="Use" style="endArrow=open;endSize=12;dashed=1;html=1;rounded=0;exitX=0;exitY=0.5;exitDx=0;exitDy=0;entryX=0.998;entryY=0.008;entryDx=0;entryDy=0;entryPerimeter=0;" parent="1" source="HKwFbB_bQjfoJEp04Cz5-57" target="HKwFbB_bQjfoJEp04Cz5-159" edge="1">
          <mxGeometry width="160" relative="1" as="geometry">
            <mxPoint x="1310" y="740" as="sourcePoint" />
            <mxPoint x="1470" y="740" as="targetPoint" />
          </mxGeometry>
        </mxCell>
        <mxCell id="HKwFbB_bQjfoJEp04Cz5-163" value="" style="endArrow=block;dashed=1;endFill=0;endSize=12;html=1;rounded=0;entryX=0.414;entryY=1.109;entryDx=0;entryDy=0;entryPerimeter=0;exitX=1;exitY=0;exitDx=0;exitDy=0;" parent="1" source="HKwFbB_bQjfoJEp04Cz5-167" target="HKwFbB_bQjfoJEp04Cz5-166" edge="1">
          <mxGeometry width="160" relative="1" as="geometry">
            <mxPoint x="530" y="620" as="sourcePoint" />
            <mxPoint x="510" y="770" as="targetPoint" />
            <Array as="points">
              <mxPoint x="530" y="626" />
            </Array>
          </mxGeometry>
        </mxCell>
        <mxCell id="HKwFbB_bQjfoJEp04Cz5-164" value="&amp;lt;&amp;lt;IOpponentStrategy&amp;gt;&amp;gt;" style="swimlane;fontStyle=0;childLayout=stackLayout;horizontal=1;startSize=26;fillColor=none;horizontalStack=0;resizeParent=1;resizeParentMax=0;resizeLast=0;collapsible=1;marginBottom=0;whiteSpace=wrap;html=1;" parent="1" vertex="1">
          <mxGeometry x="460" y="469" width="170" height="78" as="geometry" />
        </mxCell>
        <mxCell id="HKwFbB_bQjfoJEp04Cz5-165" value="+ PlayTurn(DiceSet): void" style="text;strokeColor=none;fillColor=none;align=left;verticalAlign=top;spacingLeft=4;spacingRight=4;overflow=hidden;rotatable=0;points=[[0,0.5],[1,0.5]];portConstraint=eastwest;whiteSpace=wrap;html=1;" parent="HKwFbB_bQjfoJEp04Cz5-164" vertex="1">
          <mxGeometry y="26" width="170" height="26" as="geometry" />
        </mxCell>
        <mxCell id="HKwFbB_bQjfoJEp04Cz5-166" value="+ GetTargetName(): string" style="text;strokeColor=none;fillColor=none;align=left;verticalAlign=top;spacingLeft=4;spacingRight=4;overflow=hidden;rotatable=0;points=[[0,0.5],[1,0.5]];portConstraint=eastwest;whiteSpace=wrap;html=1;" parent="HKwFbB_bQjfoJEp04Cz5-164" vertex="1">
          <mxGeometry y="52" width="170" height="26" as="geometry" />
        </mxCell>
        <mxCell id="HKwFbB_bQjfoJEp04Cz5-167" value="RollEverything" style="swimlane;fontStyle=1;align=center;verticalAlign=top;childLayout=stackLayout;horizontal=1;startSize=26;horizontalStack=0;resizeParent=1;resizeParentMax=0;resizeLast=0;collapsible=1;marginBottom=0;whiteSpace=wrap;html=1;" parent="1" vertex="1">
          <mxGeometry x="330" y="626" width="160" height="34" as="geometry">
            <mxRectangle x="10" y="512" width="80" height="30" as="alternateBounds" />
          </mxGeometry>
        </mxCell>
        <mxCell id="HKwFbB_bQjfoJEp04Cz5-168" value="" style="line;strokeWidth=1;fillColor=none;align=left;verticalAlign=middle;spacingTop=-1;spacingLeft=3;spacingRight=3;rotatable=0;labelPosition=right;points=[];portConstraint=eastwest;strokeColor=inherit;" parent="HKwFbB_bQjfoJEp04Cz5-167" vertex="1">
          <mxGeometry y="26" width="160" height="8" as="geometry" />
        </mxCell>
        <mxCell id="HKwFbB_bQjfoJEp04Cz5-169" value="GreedyHigh" style="swimlane;fontStyle=1;align=center;verticalAlign=top;childLayout=stackLayout;horizontal=1;startSize=26;horizontalStack=0;resizeParent=1;resizeParentMax=0;resizeLast=0;collapsible=1;marginBottom=0;whiteSpace=wrap;html=1;" parent="1" vertex="1">
          <mxGeometry x="330" y="685" width="160" height="34" as="geometry">
            <mxRectangle x="10" y="512" width="80" height="30" as="alternateBounds" />
          </mxGeometry>
        </mxCell>
        <mxCell id="HKwFbB_bQjfoJEp04Cz5-170" value="" style="line;strokeWidth=1;fillColor=none;align=left;verticalAlign=middle;spacingTop=-1;spacingLeft=3;spacingRight=3;rotatable=0;labelPosition=right;points=[];portConstraint=eastwest;strokeColor=inherit;" parent="HKwFbB_bQjfoJEp04Cz5-169" vertex="1">
          <mxGeometry y="26" width="160" height="8" as="geometry" />
        </mxCell>
        <mxCell id="HKwFbB_bQjfoJEp04Cz5-171" value="Drunk" style="swimlane;fontStyle=1;align=center;verticalAlign=top;childLayout=stackLayout;horizontal=1;startSize=26;horizontalStack=0;resizeParent=1;resizeParentMax=0;resizeLast=0;collapsible=1;marginBottom=0;whiteSpace=wrap;html=1;" parent="1" vertex="1">
          <mxGeometry x="330" y="745" width="160" height="34" as="geometry">
            <mxRectangle x="10" y="512" width="80" height="30" as="alternateBounds" />
          </mxGeometry>
        </mxCell>
        <mxCell id="HKwFbB_bQjfoJEp04Cz5-172" value="" style="line;strokeWidth=1;fillColor=none;align=left;verticalAlign=middle;spacingTop=-1;spacingLeft=3;spacingRight=3;rotatable=0;labelPosition=right;points=[];portConstraint=eastwest;strokeColor=inherit;" parent="HKwFbB_bQjfoJEp04Cz5-171" vertex="1">
          <mxGeometry y="26" width="160" height="8" as="geometry" />
        </mxCell>
        <mxCell id="HKwFbB_bQjfoJEp04Cz5-173" value="" style="endArrow=none;dashed=1;html=1;rounded=0;exitX=1;exitY=0;exitDx=0;exitDy=0;" parent="1" source="HKwFbB_bQjfoJEp04Cz5-169" edge="1">
          <mxGeometry width="50" height="50" relative="1" as="geometry">
            <mxPoint x="530" y="700" as="sourcePoint" />
            <mxPoint x="530" y="630" as="targetPoint" />
            <Array as="points">
              <mxPoint x="530" y="685" />
            </Array>
          </mxGeometry>
        </mxCell>
        <mxCell id="HKwFbB_bQjfoJEp04Cz5-174" value="" style="endArrow=none;dashed=1;html=1;rounded=0;exitX=1;exitY=0;exitDx=0;exitDy=0;" parent="1" source="HKwFbB_bQjfoJEp04Cz5-171" edge="1">
          <mxGeometry width="50" height="50" relative="1" as="geometry">
            <mxPoint x="510" y="780" as="sourcePoint" />
            <mxPoint x="530" y="680" as="targetPoint" />
            <Array as="points">
              <mxPoint x="530" y="745" />
            </Array>
          </mxGeometry>
        </mxCell>
        <mxCell id="HKwFbB_bQjfoJEp04Cz5-175" value="Blind" style="swimlane;fontStyle=1;align=center;verticalAlign=top;childLayout=stackLayout;horizontal=1;startSize=26;horizontalStack=0;resizeParent=1;resizeParentMax=0;resizeLast=0;collapsible=1;marginBottom=0;whiteSpace=wrap;html=1;" parent="1" vertex="1">
          <mxGeometry x="330" y="804" width="160" height="34" as="geometry">
            <mxRectangle x="10" y="512" width="80" height="30" as="alternateBounds" />
          </mxGeometry>
        </mxCell>
        <mxCell id="HKwFbB_bQjfoJEp04Cz5-176" value="" style="line;strokeWidth=1;fillColor=none;align=left;verticalAlign=middle;spacingTop=-1;spacingLeft=3;spacingRight=3;rotatable=0;labelPosition=right;points=[];portConstraint=eastwest;strokeColor=inherit;" parent="HKwFbB_bQjfoJEp04Cz5-175" vertex="1">
          <mxGeometry y="26" width="160" height="8" as="geometry" />
        </mxCell>
        <mxCell id="HKwFbB_bQjfoJEp04Cz5-177" value="" style="endArrow=none;dashed=1;html=1;rounded=0;exitX=1;exitY=0;exitDx=0;exitDy=0;" parent="1" source="HKwFbB_bQjfoJEp04Cz5-175" edge="1">
          <mxGeometry width="50" height="50" relative="1" as="geometry">
            <mxPoint x="510" y="830" as="sourcePoint" />
            <mxPoint x="530" y="750" as="targetPoint" />
            <Array as="points">
              <mxPoint x="530" y="804" />
            </Array>
          </mxGeometry>
        </mxCell>
        <mxCell id="HKwFbB_bQjfoJEp04Cz5-178" value="&lt;div&gt;Każda klasa ma pole jako swój opis startegii&lt;/div&gt;RollEverything:&lt;div&gt;Przeciwnik rolluje ile fabryka dala&lt;/div&gt;&lt;div&gt;GreedyHigh:&amp;nbsp;&lt;/div&gt;&lt;div&gt;Przerzuca wszystkie kosci o nizszej wartosci niz 5&lt;/div&gt;&lt;div&gt;Drunk:&lt;/div&gt;&lt;div&gt;Gra losowo&lt;/div&gt;&lt;div&gt;Blind:&lt;/div&gt;&lt;div&gt;Akceptuje wszystkie rece od razu&lt;/div&gt;" style="rounded=0;whiteSpace=wrap;html=1;" parent="1" vertex="1">
          <mxGeometry x="320" y="929" width="120" height="220" as="geometry" />
        </mxCell>
        <mxCell id="HKwFbB_bQjfoJEp04Cz5-179" value="" style="endArrow=diamondThin;endFill=1;endSize=24;html=1;rounded=0;exitX=0.696;exitY=1.16;exitDx=0;exitDy=0;exitPerimeter=0;entryX=0;entryY=0.5;entryDx=0;entryDy=0;" parent="1" source="HKwFbB_bQjfoJEp04Cz5-166" edge="1">
          <mxGeometry width="160" relative="1" as="geometry">
            <mxPoint x="510" y="680" as="sourcePoint" />
            <mxPoint x="691" y="758" as="targetPoint" />
            <Array as="points">
              <mxPoint x="576" y="758" />
            </Array>
          </mxGeometry>
        </mxCell>
        <mxCell id="HKwFbB_bQjfoJEp04Cz5-180" value="&lt;i&gt;Opponent&lt;/i&gt;" style="swimlane;fontStyle=1;align=center;verticalAlign=top;childLayout=stackLayout;horizontal=1;startSize=26;horizontalStack=0;resizeParent=1;resizeParentMax=0;resizeLast=0;collapsible=1;marginBottom=0;whiteSpace=wrap;html=1;" parent="1" vertex="1">
          <mxGeometry x="690" y="710" width="250" height="216" as="geometry" />
        </mxCell>
        <mxCell id="HKwFbB_bQjfoJEp04Cz5-181" value="- opponentBooster: int" style="text;strokeColor=none;fillColor=none;align=left;verticalAlign=top;spacingLeft=4;spacingRight=4;overflow=hidden;rotatable=0;points=[[0,0.5],[1,0.5]];portConstraint=eastwest;whiteSpace=wrap;html=1;" parent="HKwFbB_bQjfoJEp04Cz5-180" vertex="1">
          <mxGeometry y="26" width="250" height="26" as="geometry" />
        </mxCell>
        <mxCell id="HKwFbB_bQjfoJEp04Cz5-182" value="- startegies: List&amp;lt;IOpponentStrategy&amp;gt;" style="text;strokeColor=none;fillColor=none;align=left;verticalAlign=top;spacingLeft=4;spacingRight=4;overflow=hidden;rotatable=0;points=[[0,0.5],[1,0.5]];portConstraint=eastwest;whiteSpace=wrap;html=1;" parent="HKwFbB_bQjfoJEp04Cz5-180" vertex="1">
          <mxGeometry y="52" width="250" height="26" as="geometry" />
        </mxCell>
        <mxCell id="HKwFbB_bQjfoJEp04Cz5-183" value="- currentStrategy: IOpponentStrategy" style="text;strokeColor=none;fillColor=none;align=left;verticalAlign=top;spacingLeft=4;spacingRight=4;overflow=hidden;rotatable=0;points=[[0,0.5],[1,0.5]];portConstraint=eastwest;whiteSpace=wrap;html=1;" parent="HKwFbB_bQjfoJEp04Cz5-180" vertex="1">
          <mxGeometry y="78" width="250" height="26" as="geometry" />
        </mxCell>
        <mxCell id="-SWtafrbvMWJWGkDT9lV-2" value="+ ID: int" style="text;strokeColor=none;fillColor=none;align=left;verticalAlign=top;spacingLeft=4;spacingRight=4;overflow=hidden;rotatable=0;points=[[0,0.5],[1,0.5]];portConstraint=eastwest;whiteSpace=wrap;html=1;" vertex="1" parent="HKwFbB_bQjfoJEp04Cz5-180">
          <mxGeometry y="104" width="250" height="26" as="geometry" />
        </mxCell>
        <mxCell id="HKwFbB_bQjfoJEp04Cz5-184" value="+ diceSet: DiceSet" style="text;strokeColor=none;fillColor=none;align=left;verticalAlign=top;spacingLeft=4;spacingRight=4;overflow=hidden;rotatable=0;points=[[0,0.5],[1,0.5]];portConstraint=eastwest;whiteSpace=wrap;html=1;" parent="HKwFbB_bQjfoJEp04Cz5-180" vertex="1">
          <mxGeometry y="130" width="250" height="26" as="geometry" />
        </mxCell>
        <mxCell id="HKwFbB_bQjfoJEp04Cz5-185" value="" style="line;strokeWidth=1;fillColor=none;align=left;verticalAlign=middle;spacingTop=-1;spacingLeft=3;spacingRight=3;rotatable=0;labelPosition=right;points=[];portConstraint=eastwest;strokeColor=inherit;" parent="HKwFbB_bQjfoJEp04Cz5-180" vertex="1">
          <mxGeometry y="156" width="250" height="8" as="geometry" />
        </mxCell>
        <mxCell id="HKwFbB_bQjfoJEp04Cz5-186" value="+ PlayTurn(): void" style="text;strokeColor=none;fillColor=none;align=left;verticalAlign=top;spacingLeft=4;spacingRight=4;overflow=hidden;rotatable=0;points=[[0,0.5],[1,0.5]];portConstraint=eastwest;whiteSpace=wrap;html=1;" parent="HKwFbB_bQjfoJEp04Cz5-180" vertex="1">
          <mxGeometry y="164" width="250" height="26" as="geometry" />
        </mxCell>
        <mxCell id="-SWtafrbvMWJWGkDT9lV-3" value="+ ApplyEffect(Player): void" style="text;strokeColor=none;fillColor=none;align=left;verticalAlign=top;spacingLeft=4;spacingRight=4;overflow=hidden;rotatable=0;points=[[0,0.5],[1,0.5]];portConstraint=eastwest;whiteSpace=wrap;html=1;" vertex="1" parent="HKwFbB_bQjfoJEp04Cz5-180">
          <mxGeometry y="190" width="250" height="26" as="geometry" />
        </mxCell>
        <mxCell id="HKwFbB_bQjfoJEp04Cz5-187" value="Uzywa ThrowManager&lt;div&gt;agreguje DiceSet&lt;/div&gt;" style="html=1;whiteSpace=wrap;" parent="1" vertex="1">
          <mxGeometry x="540" y="810" width="130" height="50" as="geometry" />
        </mxCell>
        <mxCell id="HKwFbB_bQjfoJEp04Cz5-188" value="NoRerollsEffect" style="swimlane;fontStyle=1;align=center;verticalAlign=top;childLayout=stackLayout;horizontal=1;startSize=26;horizontalStack=0;resizeParent=1;resizeParentMax=0;resizeLast=0;collapsible=1;marginBottom=0;whiteSpace=wrap;html=1;" parent="1" vertex="1">
          <mxGeometry x="1050" y="1140" width="160" height="60" as="geometry" />
        </mxCell>
        <mxCell id="HKwFbB_bQjfoJEp04Cz5-189" value="- description: string" style="text;strokeColor=none;fillColor=none;align=left;verticalAlign=top;spacingLeft=4;spacingRight=4;overflow=hidden;rotatable=0;points=[[0,0.5],[1,0.5]];portConstraint=eastwest;whiteSpace=wrap;html=1;" parent="HKwFbB_bQjfoJEp04Cz5-188" vertex="1">
          <mxGeometry y="26" width="160" height="26" as="geometry" />
        </mxCell>
        <mxCell id="HKwFbB_bQjfoJEp04Cz5-190" value="" style="line;strokeWidth=1;fillColor=none;align=left;verticalAlign=middle;spacingTop=-1;spacingLeft=3;spacingRight=3;rotatable=0;labelPosition=right;points=[];portConstraint=eastwest;strokeColor=inherit;" parent="HKwFbB_bQjfoJEp04Cz5-188" vertex="1">
          <mxGeometry y="52" width="160" height="8" as="geometry" />
        </mxCell>
        <mxCell id="HKwFbB_bQjfoJEp04Cz5-191" value="NoThrowsEffect" style="swimlane;fontStyle=1;align=center;verticalAlign=top;childLayout=stackLayout;horizontal=1;startSize=26;horizontalStack=0;resizeParent=1;resizeParentMax=0;resizeLast=0;collapsible=1;marginBottom=0;whiteSpace=wrap;html=1;" parent="1" vertex="1">
          <mxGeometry x="1230" y="1140" width="160" height="60" as="geometry" />
        </mxCell>
        <mxCell id="HKwFbB_bQjfoJEp04Cz5-192" value="- description: string" style="text;strokeColor=none;fillColor=none;align=left;verticalAlign=top;spacingLeft=4;spacingRight=4;overflow=hidden;rotatable=0;points=[[0,0.5],[1,0.5]];portConstraint=eastwest;whiteSpace=wrap;html=1;" parent="HKwFbB_bQjfoJEp04Cz5-191" vertex="1">
          <mxGeometry y="26" width="160" height="26" as="geometry" />
        </mxCell>
        <mxCell id="HKwFbB_bQjfoJEp04Cz5-193" value="" style="line;strokeWidth=1;fillColor=none;align=left;verticalAlign=middle;spacingTop=-1;spacingLeft=3;spacingRight=3;rotatable=0;labelPosition=right;points=[];portConstraint=eastwest;strokeColor=inherit;" parent="HKwFbB_bQjfoJEp04Cz5-191" vertex="1">
          <mxGeometry y="52" width="160" height="8" as="geometry" />
        </mxCell>
        <mxCell id="HKwFbB_bQjfoJEp04Cz5-194" value="CurrentScoreHalfed" style="swimlane;fontStyle=1;align=center;verticalAlign=top;childLayout=stackLayout;horizontal=1;startSize=26;horizontalStack=0;resizeParent=1;resizeParentMax=0;resizeLast=0;collapsible=1;marginBottom=0;whiteSpace=wrap;html=1;" parent="1" vertex="1">
          <mxGeometry x="1420" y="1140" width="160" height="60" as="geometry" />
        </mxCell>
        <mxCell id="HKwFbB_bQjfoJEp04Cz5-195" value="- description: string" style="text;strokeColor=none;fillColor=none;align=left;verticalAlign=top;spacingLeft=4;spacingRight=4;overflow=hidden;rotatable=0;points=[[0,0.5],[1,0.5]];portConstraint=eastwest;whiteSpace=wrap;html=1;" parent="HKwFbB_bQjfoJEp04Cz5-194" vertex="1">
          <mxGeometry y="26" width="160" height="26" as="geometry" />
        </mxCell>
        <mxCell id="HKwFbB_bQjfoJEp04Cz5-196" value="" style="line;strokeWidth=1;fillColor=none;align=left;verticalAlign=middle;spacingTop=-1;spacingLeft=3;spacingRight=3;rotatable=0;labelPosition=right;points=[];portConstraint=eastwest;strokeColor=inherit;" parent="HKwFbB_bQjfoJEp04Cz5-194" vertex="1">
          <mxGeometry y="52" width="160" height="8" as="geometry" />
        </mxCell>
        <mxCell id="HKwFbB_bQjfoJEp04Cz5-197" value="" style="endArrow=block;dashed=1;endFill=0;endSize=12;html=1;rounded=0;entryX=0.526;entryY=1.15;entryDx=0;entryDy=0;entryPerimeter=0;exitX=0.457;exitY=-0.04;exitDx=0;exitDy=0;exitPerimeter=0;" parent="1" source="HKwFbB_bQjfoJEp04Cz5-188" target="HKwFbB_bQjfoJEp04Cz5-147" edge="1">
          <mxGeometry width="160" relative="1" as="geometry">
            <mxPoint x="1140" y="1080" as="sourcePoint" />
            <mxPoint x="1300" y="1080" as="targetPoint" />
            <Array as="points">
              <mxPoint x="1123" y="1120" />
              <mxPoint x="1205" y="1120" />
            </Array>
          </mxGeometry>
        </mxCell>
        <mxCell id="HKwFbB_bQjfoJEp04Cz5-198" value="" style="endArrow=none;dashed=1;html=1;rounded=0;entryX=0.438;entryY=0;entryDx=0;entryDy=0;entryPerimeter=0;" parent="1" target="HKwFbB_bQjfoJEp04Cz5-191" edge="1">
          <mxGeometry width="50" height="50" relative="1" as="geometry">
            <mxPoint x="1210" y="1120" as="sourcePoint" />
            <mxPoint x="1250" y="1050" as="targetPoint" />
            <Array as="points">
              <mxPoint x="1300" y="1120" />
            </Array>
          </mxGeometry>
        </mxCell>
        <mxCell id="HKwFbB_bQjfoJEp04Cz5-199" value="" style="endArrow=none;dashed=1;html=1;rounded=0;entryX=0.25;entryY=0;entryDx=0;entryDy=0;" parent="1" target="HKwFbB_bQjfoJEp04Cz5-194" edge="1">
          <mxGeometry width="50" height="50" relative="1" as="geometry">
            <mxPoint x="1300" y="1120" as="sourcePoint" />
            <mxPoint x="1440" y="1050" as="targetPoint" />
            <Array as="points">
              <mxPoint x="1460" y="1120" />
            </Array>
          </mxGeometry>
        </mxCell>
        <mxCell id="HKwFbB_bQjfoJEp04Cz5-200" value="FourOfAKind" style="swimlane;fontStyle=1;align=center;verticalAlign=top;childLayout=stackLayout;horizontal=1;startSize=26;horizontalStack=0;resizeParent=1;resizeParentMax=0;resizeLast=0;collapsible=1;marginBottom=0;whiteSpace=wrap;html=1;" parent="1" vertex="1">
          <mxGeometry x="40" y="685" width="160" height="34" as="geometry" />
        </mxCell>
        <mxCell id="HKwFbB_bQjfoJEp04Cz5-201" value="" style="line;strokeWidth=1;fillColor=none;align=left;verticalAlign=middle;spacingTop=-1;spacingLeft=3;spacingRight=3;rotatable=0;labelPosition=right;points=[];portConstraint=eastwest;strokeColor=inherit;" parent="HKwFbB_bQjfoJEp04Cz5-200" vertex="1">
          <mxGeometry y="26" width="160" height="8" as="geometry" />
        </mxCell>
        <mxCell id="HKwFbB_bQjfoJEp04Cz5-202" value="" style="endArrow=none;dashed=1;html=1;rounded=0;fontSize=12;startSize=8;endSize=8;curved=1;exitX=1;exitY=0;exitDx=0;exitDy=0;" parent="1" source="HKwFbB_bQjfoJEp04Cz5-200" edge="1">
          <mxGeometry width="50" height="50" relative="1" as="geometry">
            <mxPoint x="180" y="790" as="sourcePoint" />
            <mxPoint x="280" y="685" as="targetPoint" />
          </mxGeometry>
        </mxCell>
        <mxCell id="HKwFbB_bQjfoJEp04Cz5-203" value="" style="endArrow=diamondThin;endFill=1;endSize=24;html=1;rounded=0;exitX=0;exitY=0.5;exitDx=0;exitDy=0;entryX=1;entryY=0.5;entryDx=0;entryDy=0;" parent="1" source="HKwFbB_bQjfoJEp04Cz5-134" target="HKwFbB_bQjfoJEp04Cz5-24" edge="1">
          <mxGeometry width="160" relative="1" as="geometry">
            <mxPoint x="1650" y="220" as="sourcePoint" />
            <mxPoint x="1520" y="220" as="targetPoint" />
          </mxGeometry>
        </mxCell>
        <mxCell id="HKwFbB_bQjfoJEp04Cz5-204" value="GAME MANAGER UI" style="rounded=0;whiteSpace=wrap;html=1;" parent="1" vertex="1">
          <mxGeometry x="940" y="100" width="120" height="60" as="geometry" />
        </mxCell>
        <mxCell id="HKwFbB_bQjfoJEp04Cz5-205" value="" style="endArrow=diamondThin;endFill=1;endSize=24;html=1;rounded=0;fontSize=12;curved=1;exitX=0.386;exitY=1.03;exitDx=0;exitDy=0;exitPerimeter=0;entryX=0.426;entryY=0.004;entryDx=0;entryDy=0;entryPerimeter=0;" parent="1" source="HKwFbB_bQjfoJEp04Cz5-204" target="HKwFbB_bQjfoJEp04Cz5-1" edge="1">
          <mxGeometry width="160" relative="1" as="geometry">
            <mxPoint x="1020" y="330" as="sourcePoint" />
            <mxPoint x="986" y="190" as="targetPoint" />
          </mxGeometry>
        </mxCell>
        <mxCell id="HKwFbB_bQjfoJEp04Cz5-206" value="Use" style="endArrow=open;endSize=12;dashed=1;html=1;rounded=0;exitX=0.2;exitY=0;exitDx=0;exitDy=0;exitPerimeter=0;" parent="1" source="HKwFbB_bQjfoJEp04Cz5-180" edge="1">
          <mxGeometry width="160" relative="1" as="geometry">
            <mxPoint x="740" y="680" as="sourcePoint" />
            <mxPoint x="740" y="620" as="targetPoint" />
          </mxGeometry>
        </mxCell>
        <mxCell id="HKwFbB_bQjfoJEp04Cz5-207" value="" style="endArrow=diamondThin;endFill=1;endSize=24;html=1;rounded=0;exitX=0.553;exitY=-0.006;exitDx=0;exitDy=0;exitPerimeter=0;entryX=0;entryY=0.5;entryDx=0;entryDy=0;" parent="1" source="HKwFbB_bQjfoJEp04Cz5-180" target="HKwFbB_bQjfoJEp04Cz5-19" edge="1">
          <mxGeometry width="160" relative="1" as="geometry">
            <mxPoint x="770" y="580" as="sourcePoint" />
            <mxPoint x="930" y="580" as="targetPoint" />
            <Array as="points">
              <mxPoint x="830" y="640" />
            </Array>
          </mxGeometry>
        </mxCell>
      </root>
    </mxGraphModel>
  </diagram>
</mxfile>
